<?xml version="1.0" encoding="UTF-8" standalone="no"?>
<svg width="86px" height="32px" viewBox="0 0 86 32" version="1.1" xmlns="http://www.w3.org/2000/svg" xmlns:xlink="http://www.w3.org/1999/xlink">
    <!-- Generator: Sketch 43.2 (39069) - http://www.bohemiancoding.com/sketch -->
    <title>aha</title>
    <desc>Created with Sketch.</desc>
    <defs></defs>
    <g id="Page-1" stroke="none" stroke-width="1" fill="none" fill-rule="evenodd">
        <g id="aha" fill-rule="nonzero" fill="#0173CF">
            <path d="M9.5,24.5 L8,31.2 C8,31.4 7.8,31.5 7.6,31.5 L0.4,31.5 C0.3,31.5 0.1,31.4 0.1,31.3 C0,31.2 0,31.1 0,31 L9.5,2.2 C9.5,2.2 9.7,1.7 10.3,1.5 C12.4,1.1 15.7,0.6 18,0.2 C18.5,0.1 18.7,0.6 18.7,0.6 L28,31.2 C28,31.3 28,31.4 27.9,31.5 C27.8,31.6 27.7,31.6 27.6,31.6 L23.4,31.6 C22.3,31.6 20.1,31.7 19.3,31.7 C19.1,31.7 18.9,31.6 18.9,31.4 L17.4,24.6 L9.5,24.5 Z M16.2,18.6 C15.6,16.2 14.7,11.9 13.8,8.2 C13.2,10.8 11.8,16.1 11.1,18.6 L16.2,18.6 Z" id="XMLID_496_"></path>
            <path d="M37.5,11.5 C42.6,8 46.9,8.8 49,10.9 C51.5,13.5 50.1,16.9 50.9,31.2 C50.9,31.3 50.9,31.4 50.8,31.5 C50.7,31.6 50.6,31.6 50.5,31.6 C49.7,31.6 48.2,31.5 47.5,31.5 C46.3,31.5 43.8,31.6 42.8,31.6 C42.7,31.6 42.6,31.6 42.5,31.5 C42.4,31.4 42.4,31.3 42.4,31.2 C42.5,17.2 42.6,15.3 40.1,15.3 C39.2,15.3 38.5,15.7 37.7,16 C37.7,23.2 37.8,25.3 38.1,31.1 C38.1,31.2 38.1,31.3 38,31.3 C37.9,31.4 37.8,31.4 37.8,31.4 L29.8,31.5 C29.7,31.5 29.6,31.5 29.6,31.4 C29.5,31.3 29.5,31.2 29.5,31.2 C29.7,10.3 29.5,6 28.9,1.6 C28.6,1.4 29,1.4 29,1.4 C32.6,0.9 32.9,0.8 37,0 C37,0 37.4,0 37.4,0.5 C37.5,3.6 37.5,11.5 37.5,11.5 Z" id="XMLID_492_"></path>
            <path d="M64.9,29.4 C63.4,30.5 60.5,32 58.1,32 C54.4,32 52.1,29.3 52.1,25.3 C52.1,19.1 59.4,17.3 64.6,16.6 C64.7,15.6 64.7,14.5 62.1,14.5 C59.5,14.5 57.3,15.3 55,16.2 C54.9,16.3 54.7,16.2 54.6,16.2 C54.5,16.1 54.4,16 54.4,15.8 L54.6,11 C54.6,10.8 54.7,10.7 54.9,10.6 C59.6,9.2 67.6,8.1 70.9,11.2 C73,13.1 72.9,15.5 72.8,19.5 C72.7,25.3 72.8,26.9 73.1,31.2 C73.1,31.3 73.1,31.4 73,31.5 C72.9,31.6 72.8,31.6 72.7,31.6 L65.3,31.7 C65.2,31.7 65.1,31.7 65,31.6 C64.9,31.5 64.9,31.4 64.9,31.3 L64.9,29.4 Z M64.7,21.1 C62.8,21.3 59.9,21.5 59.9,24 C59.9,26.2 62.3,26.9 64.7,25.4 L64.7,21.1 Z" id="XMLID_487_"></path>
            <g id="exclamation" transform="translate(76.000000, 0.000000)">
                <path d="M2.1,21.2 C1.9,21.2 1.7,21 1.7,20.8 C1.2,9.9 1.1,8.7 0.5,1.9 C0.5,1.7 0.6,1.5 0.9,1.4 L8.9,0.1 C9,0.1 9.2,0.1 9.3,0.2 C9.4,0.3 9.4,0.4 9.4,0.6 C8.9,5.5 8.4,14.8 8.3,20.7 C8.3,20.9 8.1,21.1 7.9,21.1 L2.1,21.2 Z" id="XMLID_486_"></path>
                <path d="M0.703648494,30.4838828 C0.7,30.4504367 0.7,30.4169905 0.7,30.3835443 C0.7,29.0270889 0.734347288,27.6362863 0.743031193,26.4311754 C0.739130163,25.9255806 0.726687089,25.4736192 0.7,25.1 C0.7,25.0312491 0.7,24.9624982 0.732496406,24.8937473 C0.725398288,24.6450797 0.714887948,24.4147604 0.7,24.2063291 C0.7,24.1050633 0.7,24.0037975 0.801265823,23.9025316 C0.902531646,23.8012658 1.00379747,23.8012658 1.10506329,23.8012658 C3.13037975,24.0037975 6.67468354,23.9025316 8.29493671,23.7 C8.39620253,23.7 8.49746835,23.7 8.59873418,23.8012658 C8.7,23.9025316 8.7,24.0037975 8.7,24.1050633 C8.7,24.3732545 8.69865733,24.6387603 8.6964358,24.9012716 C8.7,24.9341811 8.7,24.9670905 8.7,25 L8.7,31.2 C8.7,31.3 8.7,31.4 8.6,31.5 C8.5,31.6 8.4,31.6 8.3,31.6 C5.4,31.5 3.6,31.5 1.1,31.7 C1,31.7 0.9,31.7 0.8,31.6 C0.7,31.5 0.7,31.4 0.7,31.3 C0.7,31.0300159 0.70137791,30.7572759 0.703648494,30.4838828 Z" id="Combined-Shape"></path>
            </g>
        </g>
    </g>
</svg>