<?xml version="1.0" encoding="utf-8"?>
<!-- Generator: Adobe Illustrator 26.5.0, SVG Export Plug-In . SVG Version: 6.00 Build 0)  -->
<svg version="1.1" id="droid" xmlns="http://www.w3.org/2000/svg" xmlns:xlink="http://www.w3.org/1999/xlink" x="0px" y="0px"
	 viewBox="0 0 1000 180" style="enable-background:new 0 0 1000 180;" xml:space="preserve">
<path id="d_00000093139425613738289680000000819584770646589335_" d="M180,104.8c0,11-1.9,21.1-5.7,30.3
	c-3.8,9.2-9.1,17.1-15.8,23.8c-6.7,6.7-14.7,11.9-23.9,15.6s-19.2,5.7-30,5.7H16.5c-2.3,0-4.5-0.4-6.5-1.3c-2-0.8-3.8-2-5.2-3.5
	c-1.5-1.5-2.6-3.2-3.5-5.2c-0.8-2-1.3-4.2-1.3-6.5V16.5c0-2.3,0.4-4.4,1.3-6.4s2-3.8,3.5-5.3c1.5-1.5,3.2-2.7,5.2-3.5
	c2-0.8,4.2-1.3,6.5-1.3h88.2c10.8,0,20.8,1.9,30,5.7s17.2,9,23.9,15.6s12,14.6,15.8,23.9c3.8,9.3,5.7,19.3,5.7,30.2V104.8z
	 M147.4,75.4c0-6.4-1-12.2-3.1-17.5c-2.1-5.3-5-9.8-8.7-13.5c-3.8-3.7-8.3-6.6-13.5-8.7c-5.2-2.1-11-3.1-17.4-3.1h-72v114.8h72
	c6.4,0,12.2-1,17.4-3.1c5.2-2.1,9.7-4.9,13.5-8.7c3.8-3.7,6.7-8.2,8.7-13.4c2.1-5.2,3.1-11.1,3.1-17.5V75.4z"/>
<path id="r" d="M417.8,60.6c0,7.5-0.9,14.1-2.8,20c-1.8,5.9-4.3,11-7.5,15.5c-3.1,4.5-6.8,8.3-10.9,11.5c-4.1,3.2-8.4,5.8-12.9,7.9
	c-4.5,2.1-9,3.5-13.6,4.5c-4.6,0.9-8.9,1.4-12.9,1.4l68.2,58.9h-50.5L307,121.2h-23.5V88.6h73.9c4.1-0.3,7.9-1.2,11.2-2.6
	s6.3-3.2,8.8-5.6c2.5-2.3,4.4-5.2,5.7-8.5c1.3-3.3,2-7.1,2-11.4V39.9c0-1.8-0.2-3.2-0.7-4.2c-0.5-1-1.1-1.7-1.8-2.1
	c-0.7-0.5-1.5-0.7-2.3-0.8c-0.8-0.1-1.5-0.1-2.2-0.1H270.4v147.5h-32.7V16.5c0-2.3,0.4-4.4,1.3-6.4c0.8-2,2-3.8,3.5-5.3
	c1.5-1.5,3.2-2.7,5.2-3.5c2-0.8,4.2-1.3,6.5-1.3h124c7.3,0,13.4,1.3,18.5,4s9.1,5.9,12.2,9.9c3.1,4,5.4,8.3,6.8,12.9
	c1.4,4.6,2.1,8.9,2.1,12.9V60.6z"/>
<path id="o" d="M665.4,107.2c0,10.7-1.9,20.5-5.7,29.4c-3.8,9-9,16.7-15.7,23.2c-6.7,6.5-14.6,11.6-23.8,15.2
	c-9.2,3.6-19.2,5.4-30,5.4H546c-10.8,0-20.8-1.8-30-5.4c-9.2-3.6-17.2-8.7-23.9-15.2c-6.7-6.5-12-14.2-15.8-23.2
	c-3.8-9-5.7-18.8-5.7-29.4V73.8c0-10.6,1.9-20.4,5.7-29.4c3.8-9,9.1-16.7,15.8-23.2S506.8,9.6,516,6c9.2-3.7,19.2-5.5,30-5.5h44.2
	c10.8,0,20.8,1.8,30,5.5c9.2,3.7,17.1,8.7,23.8,15.2s11.9,14.2,15.7,23.2c3.8,9,5.7,18.8,5.7,29.4V107.2z M632.7,73.8
	c0-6.3-1-11.9-3.1-17c-2.1-5.1-4.9-9.4-8.7-13.1c-3.7-3.6-8.2-6.4-13.4-8.4c-5.2-2-11-3-17.3-3H546c-6.4,0-12.2,1-17.4,3
	c-5.2,2-9.7,4.8-13.5,8.4c-3.8,3.6-6.7,8-8.7,13.1c-2.1,5.1-3.1,10.8-3.1,17v33.5c0,6.3,1,11.9,3.1,17c2.1,5.1,5,9.4,8.7,13.1
	c3.8,3.6,8.3,6.4,13.5,8.4c5.2,2,11,3,17.4,3h44c6.4,0,12.2-1,17.4-3c5.2-2,9.7-4.8,13.5-8.4c3.8-3.6,6.7-8,8.7-13.1
	c2.1-5.1,3.1-10.8,3.1-17V73.8z"/>
<path id="i" d="M756.3,180.1h-32.7V0h32.7V180.1z"/>
<path id="d" d="M1000,104.8c0,11-1.9,21.1-5.7,30.3c-3.8,9.2-9.1,17.1-15.8,23.8c-6.7,6.7-14.7,11.9-23.9,15.6
	c-9.2,3.8-19.2,5.7-30,5.7h-88.2c-2.3,0-4.5-0.4-6.5-1.3c-2-0.8-3.8-2-5.2-3.5c-1.5-1.5-2.6-3.2-3.5-5.2c-0.8-2-1.3-4.2-1.3-6.5
	V16.5c0-2.3,0.4-4.4,1.3-6.4c0.8-2,2-3.8,3.5-5.3c1.5-1.5,3.2-2.7,5.2-3.5c2-0.8,4.2-1.3,6.5-1.3h88.2c10.8,0,20.8,1.9,30,5.7
	c9.2,3.8,17.2,9,23.9,15.6s12,14.6,15.8,23.9c3.8,9.3,5.7,19.3,5.7,30.2V104.8z M967.3,75.4c0-6.4-1-12.2-3.1-17.5
	c-2.1-5.3-5-9.8-8.7-13.5c-3.8-3.7-8.3-6.6-13.5-8.7c-5.2-2.1-11-3.1-17.4-3.1h-72v114.8h72c6.4,0,12.2-1,17.4-3.1
	c5.2-2.1,9.7-4.9,13.5-8.7c3.8-3.7,6.7-8.2,8.7-13.4c2.1-5.2,3.1-11.1,3.1-17.5V75.4z"/>
</svg>
