<?xml version="1.0" encoding="utf-8"?>
<!-- Generator: Adobe Illustrator 19.2.1, SVG Export Plug-In . SVG Version: 6.00 Build 0)  -->
<svg version="1.1" id="layer" xmlns="http://www.w3.org/2000/svg" xmlns:xlink="http://www.w3.org/1999/xlink" x="0px" y="0px"
	 viewBox="0 0 652 652" style="enable-background:new 0 0 652 652;" xml:space="preserve">
<style type="text/css">
	.st0{fill:#6EB935;}
	.st1{fill:#FFFFFF;}
</style>
<rect x="-108.3" y="71.4" class="st0" width="858" height="500"/>
<g>
	<path class="st1" d="M5.2,396.1c0,3.3-1.1,5.8-3.3,7.5c-2.2,1.8-5.4,2.6-9.6,2.6h-3.8v12.7h-3.7v-32.2h8.4
		C1.2,386.7,5.2,389.8,5.2,396.1 M-11.5,403h3.4c3.3,0,5.7-0.5,7.2-1.6c1.5-1.1,2.2-2.8,2.2-5.2c0-2.1-0.7-3.7-2.1-4.8
		c-1.4-1-3.6-1.6-6.5-1.6h-4.2V403z"/>
	<path class="st1" d="M-11.1,419.4h-4.6v-33.1h8.8c8.3,0,12.5,3.3,12.5,9.8c0,3.4-1.2,6-3.5,7.9c-2.3,1.8-5.6,2.7-9.8,2.7h-3.4
		V419.4z M-14.8,418.5h2.9v-12.7h4.2c4,0,7.2-0.9,9.3-2.5c2.1-1.7,3.2-4.1,3.2-7.2c0-6-3.8-9-11.7-9h-7.9V418.5z M-8.1,403.5h-3.8
		v-14h4.6c3,0,5.3,0.6,6.8,1.6c1.5,1.1,2.3,2.8,2.3,5.1c0,2.5-0.8,4.4-2.4,5.5C-2.2,402.9-4.7,403.5-8.1,403.5 M-11.1,402.6h2.9
		c3.2,0,5.6-0.5,7-1.5c1.4-1,2.1-2.6,2.1-4.8c0-2-0.6-3.5-1.9-4.4c-1.3-1-3.4-1.5-6.3-1.5h-3.8V402.6z"/>
	<path class="st1" d="M24,394.3c1.1,0,2,0.1,2.9,0.3l-0.5,3.4c-1-0.2-1.9-0.3-2.6-0.3c-2,0-3.6,0.8-5,2.4c-1.4,1.6-2.1,3.6-2.1,5.9
		v13H13v-24.2h3l0.4,4.5h0.2c0.9-1.6,2-2.8,3.2-3.6C21.1,394.7,22.5,394.3,24,394.3"/>
	<path class="st1" d="M17.1,419.4h-4.5v-25h3.8l0.4,3.8c0.8-1.2,1.8-2.2,2.8-2.9c1.3-0.9,2.8-1.4,4.4-1.4c1.1,0,2.1,0.1,3,0.3
		l0.4,0.1l-0.6,4.2l-0.4-0.1c-1-0.2-1.8-0.3-2.6-0.3c-1.8,0-3.4,0.7-4.7,2.2c-1.3,1.5-2,3.4-2,5.7V419.4z M13.4,418.5h2.8V406
		c0-2.5,0.7-4.6,2.2-6.2c1.5-1.7,3.3-2.5,5.3-2.5c0.7,0,1.4,0.1,2.3,0.2l0.4-2.5c-0.7-0.1-1.5-0.2-2.4-0.2c-1.4,0-2.7,0.4-3.9,1.2
		c-1.2,0.8-2.2,2-3.1,3.5l-0.1,0.2H16l-0.4-4.5h-2.2V418.5z"/>
	<path class="st1" d="M32.7,388.2c0-0.8,0.2-1.4,0.6-1.8c0.4-0.4,0.9-0.6,1.5-0.6c0.6,0,1.1,0.2,1.5,0.6c0.4,0.4,0.6,1,0.6,1.8
		c0,0.8-0.2,1.4-0.6,1.8c-0.4,0.4-0.9,0.6-1.5,0.6c-0.6,0-1.1-0.2-1.5-0.6C32.9,389.6,32.7,389,32.7,388.2 M36.6,418.9H33v-24.2h3.7
		V418.9z"/>
	<path class="st1" d="M37.1,419.4h-4.5v-25h4.5V419.4z M33.4,418.5h2.8v-23.3h-2.8V418.5z M34.8,391.1c-0.7,0-1.3-0.2-1.8-0.7
		c-0.5-0.5-0.7-1.2-0.7-2.1c0-1,0.3-1.7,0.7-2.2c0.5-0.5,1.1-0.7,1.8-0.7c0.7,0,1.3,0.2,1.8,0.7c0.5,0.5,0.8,1.2,0.8,2.1
		s-0.3,1.7-0.8,2.2C36.1,390.8,35.5,391.1,34.8,391.1 M34.8,386.2c-0.5,0-0.9,0.2-1.3,0.5c-0.3,0.3-0.5,0.8-0.5,1.5
		c0,0.7,0.2,1.2,0.5,1.5c0.3,0.3,0.7,0.5,1.2,0.5c0.5,0,0.9-0.2,1.2-0.5c0.3-0.3,0.5-0.8,0.5-1.5c0-0.7-0.2-1.2-0.5-1.5
		C35.7,386.4,35.3,386.2,34.8,386.2"/>
	<path class="st1" d="M51.3,418.9l-9.2-24.2H46l5.2,14.3c1.2,3.3,1.9,5.5,2.1,6.5h0.2c0.2-0.8,0.7-2.4,1.5-4.8
		c0.9-2.4,2.8-7.8,5.8-16h3.9l-9.2,24.2H51.3z"/>
	<path class="st1" d="M55.8,419.4H51l-9.5-25h4.8l5.3,14.6c0.8,2.4,1.4,4.1,1.8,5.3c0.3-0.9,0.7-2.1,1.2-3.6c0.9-2.4,2.8-7.8,5.8-16
		l0.1-0.3h4.8L55.8,419.4z M51.6,418.5h3.7l8.9-23.3h-3c-2.9,8-4.8,13.3-5.7,15.7c-0.9,2.4-1.4,4-1.5,4.8l-0.1,0.3h-0.9l-0.1-0.3
		c-0.2-1-0.9-3.2-2.1-6.5l-5.1-14h-3L51.6,418.5z"/>
	<path class="st1" d="M85,418.9l-0.7-3.4h-0.2c-1.2,1.5-2.4,2.5-3.6,3.1c-1.2,0.5-2.7,0.8-4.5,0.8c-2.4,0-4.3-0.6-5.6-1.9
		c-1.4-1.2-2-3-2-5.3c0-4.9,3.9-7.4,11.7-7.7l4.1-0.1v-1.5c0-1.9-0.4-3.3-1.2-4.2c-0.8-0.9-2.1-1.4-3.9-1.4c-2,0-4.3,0.6-6.8,1.9
		l-1.1-2.8c1.2-0.6,2.5-1.2,3.9-1.5c1.4-0.4,2.8-0.6,4.3-0.6c2.9,0,5,0.6,6.4,1.9c1.4,1.3,2.1,3.3,2.1,6.2v16.5H85z M76.8,416.3
		c2.3,0,4.1-0.6,5.4-1.9c1.3-1.2,1.9-3,1.9-5.2V407l-3.7,0.2c-2.9,0.1-5,0.6-6.3,1.4c-1.3,0.8-1.9,2-1.9,3.7c0,1.3,0.4,2.3,1.2,3
		C74.2,416,75.3,416.3,76.8,416.3"/>
	<path class="st1" d="M76,419.8c-2.5,0-4.5-0.7-5.9-2c-1.4-1.3-2.2-3.2-2.2-5.6c0-5.1,4.1-7.9,12.1-8.1l3.7-0.1v-1.1
		c0-1.8-0.4-3.1-1.1-3.9c-0.7-0.8-1.9-1.2-3.6-1.2c-1.9,0-4.2,0.6-6.6,1.8l-0.4,0.2l-1.4-3.6l0.3-0.2c1.2-0.7,2.6-1.2,4-1.6
		c1.4-0.4,2.9-0.6,4.4-0.6c3,0,5.2,0.7,6.7,2c1.5,1.4,2.2,3.5,2.2,6.5v16.9h-3.5l-0.7-3.1c-1.1,1.3-2.2,2.2-3.3,2.7
		C79.5,419.5,77.9,419.8,76,419.8 M79,397c1.9,0,3.3,0.5,4.2,1.5c0.9,1,1.3,2.5,1.3,4.5v1.9l-4.5,0.1c-7.6,0.2-11.3,2.6-11.3,7.2
		c0,2.1,0.6,3.8,1.9,5c1.3,1.2,3.1,1.7,5.3,1.7c1.7,0,3.2-0.3,4.3-0.8c1.1-0.5,2.3-1.5,3.4-3l0.1-0.2h0.7l0.7,3.4h1.9v-16.1
		c0-2.7-0.7-4.6-1.9-5.8c-1.3-1.2-3.4-1.8-6.1-1.8c-1.4,0-2.8,0.2-4.2,0.5c-1.2,0.3-2.4,0.8-3.5,1.3l0.8,2
		C74.9,397.5,77.1,397,79,397 M76.8,416.8c-1.5,0-2.8-0.4-3.6-1.1c-0.9-0.8-1.3-1.9-1.3-3.3c0-1.8,0.7-3.2,2.1-4.1
		c1.4-0.8,3.5-1.3,6.5-1.4l4.1-0.2v2.6c0,2.4-0.7,4.2-2.1,5.6C81.1,416.1,79.1,416.8,76.8,416.8 M83.7,407.5l-3.2,0.1
		c-2.8,0.1-4.9,0.5-6.1,1.3c-1.2,0.7-1.7,1.8-1.7,3.4c0,1.2,0.3,2.1,1.1,2.7c0.7,0.6,1.8,0.9,3.1,0.9c2.2,0,3.9-0.6,5.1-1.8
		c1.2-1.2,1.8-2.8,1.8-4.9V407.5z"/>
	<path class="st1" d="M106.5,419.4c-3.5,0-6.2-1.1-8.1-3.2c-1.9-2.2-2.9-5.2-2.9-9.1c0-4,1-7.2,2.9-9.4c1.9-2.2,4.7-3.3,8.3-3.3
		c1.2,0,2.3,0.1,3.5,0.4c1.2,0.3,2.1,0.5,2.7,0.9l-1.1,3.1c-0.8-0.3-1.7-0.6-2.6-0.8c-1-0.2-1.8-0.3-2.5-0.3c-4.9,0-7.4,3.1-7.4,9.4
		c0,3,0.6,5.2,1.8,6.8c1.2,1.6,3,2.4,5.3,2.4c2,0,4.1-0.4,6.2-1.3v3.2C111,418.9,109,419.4,106.5,419.4"/>
	<path class="st1" d="M106.5,419.8c-3.6,0-6.5-1.1-8.4-3.4c-2-2.2-3-5.4-3-9.4c0-4.1,1-7.4,3-9.7c2-2.3,4.9-3.5,8.6-3.5
		c1.2,0,2.4,0.1,3.6,0.4c1.2,0.3,2.1,0.6,2.8,0.9l0.3,0.2l-1.4,3.9l-0.4-0.2c-0.8-0.3-1.7-0.6-2.6-0.8c-0.9-0.2-1.7-0.3-2.4-0.3
		c-4.7,0-6.9,2.9-6.9,9c0,2.9,0.6,5.1,1.7,6.6c1.1,1.5,2.8,2.2,5,2.2c1.9,0,4-0.4,6-1.3l0.6-0.2v4.1l-0.2,0.1
		C111.2,419.4,109,419.8,106.5,419.8 M106.8,394.7c-3.5,0-6.2,1.1-8,3.2c-1.9,2.1-2.8,5.2-2.8,9.1c0,3.8,0.9,6.8,2.8,8.9
		c1.8,2,4.5,3.1,7.8,3.1c2.3,0,4.2-0.4,5.7-1.1v-2.4c-2,0.7-3.9,1.1-5.8,1.1c-2.5,0-4.4-0.9-5.7-2.5c-1.3-1.7-1.9-4-1.9-7.1
		c0-6.5,2.6-9.8,7.8-9.8c0.8,0,1.6,0.1,2.6,0.3c0.8,0.2,1.6,0.4,2.3,0.7l0.8-2.3c-0.6-0.3-1.4-0.5-2.3-0.7
		C109,394.9,107.9,394.7,106.8,394.7"/>
	<path class="st1" d="M116.1,394.8h3.9l5.3,13.8c1.2,3.1,1.9,5.4,2.2,6.8h0.2c0.2-0.7,0.6-2,1.2-3.8c0.6-1.8,2.6-7.4,6-16.7h3.9
		l-10.4,27.5c-1,2.7-2.2,4.6-3.6,5.8c-1.4,1.1-3.1,1.7-5.1,1.7c-1.1,0-2.2-0.1-3.3-0.4v-2.9c0.8,0.2,1.7,0.3,2.7,0.3
		c2.5,0,4.3-1.4,5.4-4.2l1.3-3.4L116.1,394.8z"/>
	<path class="st1" d="M119.7,430.2c-1.1,0-2.3-0.1-3.4-0.4l-0.3-0.1v-3.8l0.5,0.1c0.8,0.2,1.7,0.3,2.6,0.3c2.3,0,4-1.3,5-4l1.3-3.3
		l-9.9-24.7h4.9l5.4,14.1c0.9,2.4,1.5,4.2,1.9,5.6c0.2-0.7,0.5-1.6,0.9-2.6c0.6-1.8,2.6-7.5,6-16.8l0.1-0.3h4.8l-10.6,28.1
		c-1,2.8-2.3,4.8-3.7,6C123.6,429.6,121.8,430.2,119.7,430.2 M116.8,429.1c0.9,0.2,1.9,0.3,2.9,0.3c1.9,0,3.5-0.5,4.8-1.6
		c1.3-1.1,2.5-3,3.5-5.6l10.2-26.9h-3c-3.3,9.1-5.3,14.7-5.9,16.5c-0.6,1.8-1,3.1-1.2,3.8l-0.1,0.3h-0.9l-0.1-0.3
		c-0.3-1.4-1-3.6-2.1-6.7l-5.2-13.5h-3l9.6,23.9l-1.4,3.6c-1.1,3-3.1,4.5-5.8,4.5c-0.8,0-1.6-0.1-2.3-0.2V429.1z"/>
	<path class="st1" d="M172.4,418.9l-10.9-28.6h-0.2c0.2,2.3,0.3,5,0.3,8.1v20.5h-3.5v-32.2h5.6l10.2,26.6h0.2l10.3-26.6h5.6v32.2
		h-3.7v-20.8c0-2.4,0.1-5,0.3-7.8h-0.2l-11,28.5H172.4z"/>
	<path class="st1" d="M190.5,419.4h-4.6v-21.2c0-1.7,0.1-3.6,0.2-5.6l-10.3,26.7h-3.6l-10.2-26.7c0.1,1.7,0.1,3.7,0.1,5.8v20.9h-4.3
		v-33.1h6.4l10,26.1l10.1-26.1h6.3V419.4z M186.7,418.5h2.9v-31.4h-4.9l-10.3,26.6h-0.8l-10.2-26.6h-4.9v31.4h2.6v-20.1
		c0-3.1-0.1-5.8-0.3-8l0-0.5h0.9l10.9,28.6h2.4l11-28.5h0.9l0,0.5c-0.2,2.8-0.3,5.4-0.3,7.7V418.5z"/>
	<path class="st1" d="M214.8,418.9l-0.7-3.4h-0.2c-1.2,1.5-2.4,2.5-3.6,3.1c-1.2,0.5-2.7,0.8-4.5,0.8c-2.4,0-4.3-0.6-5.6-1.9
		c-1.4-1.2-2-3-2-5.3c0-4.9,3.9-7.4,11.7-7.7l4.1-0.1v-1.5c0-1.9-0.4-3.3-1.2-4.2c-0.8-0.9-2.1-1.4-3.9-1.4c-2,0-4.3,0.6-6.8,1.9
		l-1.1-2.8c1.2-0.6,2.5-1.2,3.9-1.5c1.4-0.4,2.8-0.6,4.3-0.6c2.9,0,5,0.6,6.4,1.9c1.4,1.3,2.1,3.3,2.1,6.2v16.5H214.8z M206.5,416.3
		c2.3,0,4.1-0.6,5.4-1.9c1.3-1.2,1.9-3,1.9-5.2V407l-3.7,0.2c-2.9,0.1-5,0.6-6.3,1.4c-1.3,0.8-1.9,2-1.9,3.7c0,1.3,0.4,2.3,1.2,3
		C204,416,205.1,416.3,206.5,416.3"/>
	<path class="st1" d="M205.8,419.8c-2.5,0-4.5-0.7-5.9-2c-1.4-1.3-2.2-3.2-2.2-5.6c0-5.1,4.1-7.9,12.1-8.1l3.7-0.1v-1.1
		c0-1.8-0.4-3.1-1.1-3.9c-0.7-0.8-1.9-1.2-3.6-1.2c-1.9,0-4.2,0.6-6.6,1.8l-0.4,0.2l-1.4-3.6l0.3-0.2c1.2-0.7,2.6-1.2,4-1.6
		c1.4-0.4,2.9-0.6,4.4-0.6c3,0,5.2,0.7,6.7,2c1.5,1.4,2.2,3.5,2.2,6.5v16.9h-3.5l-0.7-3.1c-1.1,1.3-2.2,2.2-3.3,2.7
		C209.2,419.5,207.6,419.8,205.8,419.8 M208.8,397c1.9,0,3.3,0.5,4.2,1.5c0.9,1,1.3,2.5,1.3,4.5v1.9l-4.5,0.1
		c-7.6,0.2-11.3,2.6-11.3,7.2c0,2.1,0.6,3.8,1.9,5c1.3,1.2,3.1,1.7,5.3,1.7c1.7,0,3.2-0.3,4.3-0.8c1.1-0.5,2.3-1.5,3.4-3l0.1-0.2
		h0.7l0.7,3.4h1.9v-16.1c0-2.7-0.7-4.6-1.9-5.8c-1.3-1.2-3.4-1.8-6.1-1.8c-1.4,0-2.8,0.2-4.2,0.5c-1.2,0.3-2.4,0.8-3.5,1.3l0.8,2
		C204.6,397.5,206.8,397,208.8,397 M206.5,416.8c-1.5,0-2.8-0.4-3.6-1.1c-0.9-0.8-1.3-1.9-1.3-3.3c0-1.8,0.7-3.2,2.1-4.1
		c1.4-0.8,3.5-1.3,6.5-1.4l4.1-0.2v2.6c0,2.4-0.7,4.2-2.1,5.6C210.8,416.1,208.9,416.8,206.5,416.8 M213.4,407.5l-3.2,0.1
		c-2.8,0.1-4.9,0.5-6.1,1.3c-1.2,0.7-1.7,1.8-1.7,3.4c0,1.2,0.3,2.1,1.1,2.7c0.7,0.6,1.8,0.9,3.1,0.9c2.2,0,3.9-0.6,5.1-1.8
		c1.2-1.2,1.8-2.8,1.8-4.9V407.5z"/>
	<path class="st1" d="M243.2,418.9v-15.6c0-2-0.4-3.4-1.3-4.4c-0.9-1-2.3-1.5-4.2-1.5c-2.5,0-4.4,0.7-5.6,2.1
		c-1.2,1.4-1.8,3.6-1.8,6.8v12.7h-3.7v-24.2h3l0.6,3.3h0.2c0.7-1.2,1.8-2.1,3.2-2.8c1.4-0.7,2.9-1,4.5-1c2.9,0,5.1,0.7,6.6,2.1
		c1.5,1.4,2.2,3.6,2.2,6.7v15.8H243.2z"/>
	<path class="st1" d="M247.3,419.4h-4.5v-16.1c0-1.9-0.4-3.2-1.2-4.1c-0.8-0.9-2.1-1.3-3.9-1.3c-2.4,0-4.1,0.6-5.2,1.9
		c-1.1,1.3-1.7,3.5-1.7,6.5v13.1h-4.5v-25h3.8l0.5,2.9c0.7-0.9,1.7-1.7,2.9-2.3c1.4-0.7,3-1,4.7-1c3,0,5.3,0.7,6.9,2.2
		c1.6,1.5,2.3,3.9,2.3,7V419.4z M243.6,418.5h2.8v-15.3c0-3-0.7-5.1-2.1-6.4c-1.4-1.3-3.5-2-6.3-2c-1.6,0-3,0.3-4.3,0.9
		c-1.3,0.6-2.3,1.5-3,2.6l-0.1,0.2h-0.8l-0.6-3.3h-2.2v23.3h2.8v-12.3c0-3.2,0.6-5.6,1.9-7c1.3-1.5,3.2-2.2,5.9-2.2
		c2,0,3.5,0.5,4.5,1.6c1,1,1.5,2.6,1.5,4.7V418.5z"/>
	<path class="st1" d="M270.8,418.9l-0.7-3.4h-0.2c-1.2,1.5-2.4,2.5-3.6,3.1c-1.2,0.5-2.7,0.8-4.5,0.8c-2.4,0-4.3-0.6-5.6-1.9
		c-1.4-1.2-2-3-2-5.3c0-4.9,3.9-7.4,11.7-7.7l4.1-0.1v-1.5c0-1.9-0.4-3.3-1.2-4.2c-0.8-0.9-2.1-1.4-3.9-1.4c-2,0-4.3,0.6-6.8,1.9
		l-1.1-2.8c1.2-0.6,2.5-1.2,3.9-1.5c1.4-0.4,2.8-0.6,4.3-0.6c2.9,0,5,0.6,6.4,1.9c1.4,1.3,2.1,3.3,2.1,6.2v16.5H270.8z M262.5,416.3
		c2.3,0,4.1-0.6,5.4-1.9c1.3-1.2,1.9-3,1.9-5.2V407l-3.7,0.2c-2.9,0.1-5,0.6-6.3,1.4c-1.3,0.8-1.9,2-1.9,3.7c0,1.3,0.4,2.3,1.2,3
		C260,416,261.1,416.3,262.5,416.3"/>
	<path class="st1" d="M261.8,419.8c-2.5,0-4.5-0.7-5.9-2c-1.4-1.3-2.2-3.2-2.2-5.6c0-5.1,4.1-7.9,12.1-8.1l3.7-0.1v-1.1
		c0-1.8-0.4-3.1-1.1-3.9c-0.7-0.8-1.9-1.2-3.6-1.2c-1.9,0-4.2,0.6-6.6,1.8l-0.4,0.2l-1.4-3.6l0.3-0.2c1.2-0.7,2.6-1.2,4-1.6
		c1.4-0.4,2.9-0.6,4.4-0.6c3,0,5.2,0.7,6.7,2c1.5,1.4,2.2,3.5,2.2,6.5v16.9h-3.5l-0.7-3.1c-1.1,1.3-2.2,2.2-3.3,2.7
		C265.2,419.5,263.6,419.8,261.8,419.8 M264.8,397c1.9,0,3.3,0.5,4.2,1.5c0.9,1,1.3,2.5,1.3,4.5v1.9l-4.5,0.1
		c-7.6,0.2-11.3,2.6-11.3,7.2c0,2.1,0.6,3.8,1.9,5c1.3,1.2,3.1,1.7,5.3,1.7c1.7,0,3.2-0.3,4.3-0.8c1.1-0.5,2.3-1.5,3.4-3l0.1-0.2
		h0.7l0.7,3.4h1.9v-16.1c0-2.7-0.7-4.6-1.9-5.8c-1.3-1.2-3.4-1.8-6.1-1.8c-1.4,0-2.8,0.2-4.2,0.5c-1.2,0.3-2.4,0.8-3.5,1.3l0.8,2
		C260.6,397.5,262.8,397,264.8,397 M262.5,416.8c-1.5,0-2.8-0.4-3.6-1.1c-0.9-0.8-1.3-1.9-1.3-3.3c0-1.8,0.7-3.2,2.1-4.1
		c1.4-0.8,3.5-1.3,6.5-1.4l4.1-0.2v2.6c0,2.4-0.7,4.2-2.1,5.6C266.8,416.1,264.9,416.8,262.5,416.8 M269.4,407.5l-3.2,0.1
		c-2.8,0.1-4.9,0.5-6.1,1.3c-1.2,0.7-1.7,1.8-1.7,3.4c0,1.2,0.3,2.1,1.1,2.7c0.7,0.6,1.8,0.9,3.1,0.9c2.2,0,3.9-0.6,5.1-1.8
		c1.2-1.2,1.8-2.8,1.8-4.9V407.5z"/>
	<path class="st1" d="M302.4,394.8v2.3l-4.5,0.5c0.4,0.5,0.8,1.2,1.1,2c0.3,0.8,0.5,1.8,0.5,2.8c0,2.4-0.8,4.3-2.4,5.7
		c-1.6,1.4-3.8,2.1-6.7,2.1c-0.7,0-1.4-0.1-2-0.2c-1.6,0.8-2.3,1.9-2.3,3.1c0,0.7,0.3,1.1,0.8,1.5c0.5,0.3,1.5,0.5,2.8,0.5h4.3
		c2.6,0,4.6,0.6,6,1.7c1.4,1.1,2.1,2.7,2.1,4.8c0,2.7-1.1,4.7-3.2,6.1c-2.1,1.4-5.3,2.1-9.4,2.1c-3.2,0-5.6-0.6-7.3-1.8
		c-1.7-1.2-2.6-2.8-2.6-5c0-1.5,0.5-2.7,1.4-3.8c0.9-1.1,2.3-1.8,4-2.2c-0.6-0.3-1.1-0.7-1.6-1.3c-0.4-0.6-0.6-1.3-0.6-2.1
		c0-0.9,0.2-1.7,0.7-2.3c0.5-0.7,1.2-1.3,2.2-1.9c-1.3-0.5-2.3-1.4-3.1-2.6c-0.8-1.2-1.2-2.6-1.2-4.2c0-2.6,0.8-4.7,2.4-6.1
		c1.6-1.4,3.8-2.2,6.7-2.2c1.3,0,2.4,0.1,3.4,0.4H302.4z M283.1,423c0,1.3,0.6,2.3,1.7,3c1.1,0.7,2.7,1,4.7,1c3.1,0,5.3-0.5,6.8-1.4
		c1.5-0.9,2.2-2.2,2.2-3.7c0-1.3-0.4-2.2-1.2-2.7c-0.8-0.5-2.3-0.8-4.6-0.8h-4.4c-1.7,0-3,0.4-3.9,1.2
		C283.6,420.4,283.1,421.5,283.1,423 M285.1,402.5c0,1.7,0.5,3,1.4,3.8c1,0.9,2.3,1.3,4,1.3c3.6,0,5.4-1.7,5.4-5.2
		c0-3.6-1.8-5.4-5.4-5.4c-1.7,0-3,0.5-4,1.4C285.6,399.3,285.1,400.7,285.1,402.5"/>
	<path class="st1" d="M289.5,430.2c-3.2,0-5.8-0.6-7.6-1.8c-1.8-1.3-2.8-3.1-2.8-5.3c0-1.6,0.5-3,1.5-4.1c0.8-0.9,1.9-1.6,3.2-2.1
		c-0.3-0.3-0.6-0.6-0.8-0.9c-0.5-0.7-0.7-1.4-0.7-2.3c0-1,0.3-1.8,0.8-2.6c0.4-0.6,1-1.1,1.7-1.6c-1-0.6-1.9-1.4-2.5-2.5
		c-0.8-1.3-1.2-2.8-1.2-4.5c0-2.8,0.8-4.9,2.5-6.4c1.7-1.5,4-2.3,7-2.3c1.3,0,2.4,0.1,3.5,0.4h8.7v3.1l-4.1,0.5
		c0.3,0.4,0.5,0.9,0.7,1.5c0.3,0.9,0.5,1.9,0.5,3c0,2.5-0.9,4.5-2.6,6c-1.7,1.5-4,2.2-6.9,2.2c-0.7,0-1.3-0.1-2-0.2
		c-1.3,0.7-2,1.6-2,2.7c0,0.5,0.2,0.9,0.6,1.1c0.3,0.2,1,0.4,2.6,0.4h4.3c2.7,0,4.8,0.6,6.3,1.7c1.5,1.2,2.3,2.9,2.3,5.1
		c0,2.8-1.1,5-3.4,6.5C296.9,429.5,293.7,430.2,289.5,430.2 M290.6,394.7c-2.8,0-5,0.7-6.5,2c-1.5,1.3-2.2,3.3-2.2,5.8
		c0,1.5,0.4,2.8,1.1,4c0.7,1.2,1.7,2,2.9,2.5l0.8,0.3l-0.7,0.4c-1,0.6-1.7,1.2-2.1,1.8c-0.4,0.6-0.6,1.3-0.6,2.1
		c0,0.7,0.2,1.3,0.5,1.8c0.4,0.5,0.8,0.9,1.4,1.2l1.2,0.5l-1.3,0.3c-1.6,0.4-2.9,1-3.7,2c-0.9,1-1.3,2.2-1.3,3.5
		c0,2,0.8,3.5,2.4,4.6c1.6,1.1,4,1.7,7.1,1.7c4,0,7.1-0.7,9.2-2c2-1.3,3-3.2,3-5.8c0-2-0.6-3.4-1.9-4.5c-1.3-1-3.3-1.6-5.8-1.6h-4.3
		c-1.4,0-2.4-0.2-3-0.5c-0.7-0.4-1-1-1-1.8c0-1.4,0.9-2.6,2.6-3.5l0.1-0.1l0.1,0c0.6,0.1,1.3,0.2,1.9,0.2c2.7,0,4.8-0.7,6.4-2
		c1.5-1.3,2.3-3.1,2.3-5.3c0-1-0.1-1.9-0.5-2.7c-0.3-0.8-0.7-1.4-1-1.9l-0.5-0.6l4.9-0.6v-1.5l-8,0
		C292.9,394.9,291.8,394.7,290.6,394.7 M289.5,427.4c-2.1,0-3.8-0.4-5-1.1c-1.2-0.8-1.9-1.9-1.9-3.3c0-1.6,0.5-2.9,1.5-3.7
		c1-0.9,2.4-1.3,4.2-1.3h4.4c2.3,0,3.9,0.3,4.8,0.8c0.9,0.6,1.4,1.6,1.4,3.1c0,1.7-0.8,3.1-2.4,4.1
		C295,426.9,292.7,427.4,289.5,427.4 M288.4,418.8c-1.6,0-2.8,0.4-3.6,1.1c-0.8,0.7-1.2,1.7-1.2,3.1c0,1.2,0.5,2,1.4,2.6
		c1,0.6,2.5,1,4.5,1c3,0,5.2-0.4,6.6-1.3c1.4-0.8,2-1.9,2-3.4c0-1.2-0.3-1.9-1-2.4c-0.7-0.5-2.2-0.7-4.3-0.7H288.4z M290.5,408.1
		c-1.8,0-3.2-0.5-4.3-1.4c-1-0.9-1.6-2.3-1.6-4.2c0-1.9,0.5-3.4,1.5-4.4c1-1,2.4-1.5,4.3-1.5c3.8,0,5.9,2,5.9,5.9
		C296.3,406.1,294.3,408.1,290.5,408.1 M290.5,397.4c-1.6,0-2.8,0.4-3.7,1.3c-0.8,0.8-1.3,2.1-1.3,3.8c0,1.6,0.4,2.7,1.3,3.5
		c0.9,0.8,2.1,1.2,3.7,1.2c3.3,0,4.9-1.6,4.9-4.8C295.5,399.1,293.8,397.4,290.5,397.4"/>
	<path class="st1" d="M319.1,419.4c-3.6,0-6.4-1.1-8.5-3.3c-2.1-2.2-3.1-5.2-3.1-9.1c0-3.9,1-7,2.9-9.3c1.9-2.3,4.5-3.4,7.7-3.4
		c3,0,5.4,1,7.2,3c1.8,2,2.6,4.6,2.6,7.9v2.3h-16.6c0.1,2.8,0.8,5,2.1,6.5c1.4,1.5,3.3,2.2,5.7,2.2c2.6,0,5.2-0.5,7.7-1.6v3.3
		c-1.3,0.6-2.5,1-3.7,1.2C322.2,419.2,320.8,419.4,319.1,419.4 M318.1,397.4c-1.9,0-3.5,0.6-4.6,1.9c-1.2,1.3-1.8,3-2,5.2h12.6
		c0-2.3-0.5-4.1-1.5-5.3C321.5,398,320.1,397.4,318.1,397.4"/>
	<path class="st1" d="M319.1,419.8c-3.7,0-6.6-1.1-8.8-3.4c-2.1-2.2-3.2-5.4-3.2-9.4c0-4,1-7.2,3-9.6c2-2.4,4.7-3.6,8.1-3.6
		c3.1,0,5.7,1.1,7.5,3.1c1.8,2.1,2.8,4.8,2.8,8.2v2.7h-16.6c0.1,2.5,0.8,4.4,2,5.7c1.3,1.4,3.1,2.1,5.4,2.1c2.5,0,5.1-0.5,7.5-1.6
		l0.6-0.3v4.2l-0.3,0.1c-1.3,0.6-2.6,1-3.8,1.2C322.2,419.7,320.8,419.8,319.1,419.8 M318.2,394.7c-3.1,0-5.6,1.1-7.4,3.3
		c-1.8,2.2-2.8,5.2-2.8,9c0,3.7,1,6.7,3,8.8c2,2.1,4.7,3.1,8.1,3.1c1.6,0,3-0.1,4.1-0.4c1-0.2,2.2-0.6,3.3-1.1v-2.3
		c-2.4,0.9-4.8,1.4-7.3,1.4c-2.6,0-4.6-0.8-6.1-2.3c-1.4-1.5-2.2-3.8-2.3-6.7l0-0.4h16.7v-1.9c0-3.1-0.9-5.7-2.5-7.6
		C323.4,395.7,321.1,394.7,318.2,394.7 M324.5,405H311l0-0.5c0.2-2.3,0.9-4.2,2.2-5.5c1.2-1.4,2.9-2,5-2c2,0,3.6,0.7,4.7,2
		c1.1,1.3,1.6,3.2,1.6,5.6V405z M311.9,404.1h11.7c-0.1-2-0.5-3.5-1.4-4.6c-1-1.1-2.3-1.7-4.1-1.7c-1.8,0-3.2,0.6-4.3,1.8
		C312.8,400.7,312.2,402.2,311.9,404.1"/>
	<path class="st1" d="M366.6,418.9v-15.7c0-1.9-0.4-3.4-1.2-4.3c-0.8-1-2.1-1.4-3.8-1.4c-2.3,0-4,0.7-5.1,2c-1.1,1.3-1.6,3.3-1.6,6
		v13.5h-3.7v-15.7c0-1.9-0.4-3.4-1.2-4.3c-0.8-1-2.1-1.4-3.9-1.4c-2.3,0-4,0.7-5,2.1c-1.1,1.4-1.6,3.6-1.6,6.8v12.7h-3.7v-24.2h3
		l0.6,3.3h0.2c0.7-1.2,1.7-2.1,2.9-2.8c1.3-0.7,2.7-1,4.2-1c3.8,0,6.2,1.4,7.4,4.1h0.2c0.7-1.3,1.8-2.3,3.1-3
		c1.4-0.7,2.9-1.1,4.7-1.1c2.7,0,4.8,0.7,6.1,2.1c1.4,1.4,2,3.6,2,6.7v15.8H366.6z"/>
	<path class="st1" d="M370.7,419.4h-4.5v-16.1c0-1.8-0.4-3.2-1.1-4.1c-0.7-0.9-1.9-1.3-3.5-1.3c-2.1,0-3.7,0.6-4.7,1.8
		c-1,1.2-1.5,3.2-1.5,5.8v13.9h-4.5v-16.1c0-1.8-0.4-3.2-1.1-4.1c-0.7-0.9-1.9-1.3-3.5-1.3c-2.1,0-3.7,0.6-4.7,1.9
		c-1,1.3-1.5,3.5-1.5,6.5v13.1h-4.5v-25h3.8l0.5,2.8c0.7-0.9,1.6-1.7,2.6-2.2c1.3-0.7,2.8-1,4.4-1c3.7,0,6.2,1.3,7.5,3.8
		c0.7-1.1,1.7-2,3-2.6c1.4-0.8,3.1-1.2,4.9-1.2c2.8,0,5,0.8,6.4,2.2c1.4,1.5,2.2,3.8,2.2,7V419.4z M367.1,418.5h2.8v-15.3
		c0-3-0.6-5.1-1.9-6.4c-1.3-1.3-3.2-2-5.8-2c-1.7,0-3.2,0.4-4.5,1c-1.3,0.7-2.3,1.6-3,2.8l-0.1,0.2h-0.7l-0.1-0.3
		c-1.1-2.6-3.4-3.8-7-3.8c-1.5,0-2.8,0.3-4,0.9c-1.2,0.6-2.1,1.5-2.8,2.6l-0.1,0.2h-0.8l-0.6-3.3h-2.2v23.3h2.8v-12.3
		c0-3.3,0.6-5.6,1.7-7c1.1-1.5,3-2.2,5.4-2.2c1.9,0,3.3,0.5,4.2,1.6c0.9,1,1.3,2.6,1.3,4.6v15.3h2.8v-13.1c0-2.8,0.6-4.9,1.7-6.3
		c1.2-1.4,3-2.1,5.4-2.1c1.9,0,3.3,0.5,4.2,1.6c0.9,1,1.3,2.6,1.3,4.6V418.5z"/>
	<path class="st1" d="M389.6,419.4c-3.6,0-6.4-1.1-8.5-3.3c-2.1-2.2-3.1-5.2-3.1-9.1c0-3.9,1-7,2.9-9.3s4.5-3.4,7.7-3.4
		c3,0,5.4,1,7.2,3c1.8,2,2.6,4.6,2.6,7.9v2.3h-16.6c0.1,2.8,0.8,5,2.1,6.5c1.4,1.5,3.3,2.2,5.7,2.2c2.6,0,5.2-0.5,7.7-1.6v3.3
		c-1.3,0.6-2.5,1-3.7,1.2C392.7,419.2,391.3,419.4,389.6,419.4 M388.6,397.4c-1.9,0-3.5,0.6-4.6,1.9c-1.2,1.3-1.8,3-2,5.2h12.6
		c0-2.3-0.5-4.1-1.5-5.3C392,398,390.6,397.4,388.6,397.4"/>
	<path class="st1" d="M389.6,419.8c-3.7,0-6.6-1.1-8.8-3.4c-2.1-2.2-3.2-5.4-3.2-9.4c0-4,1-7.2,3-9.6c2-2.4,4.7-3.6,8.1-3.6
		c3.1,0,5.7,1.1,7.5,3.1c1.8,2.1,2.8,4.8,2.8,8.2v2.7h-16.6c0.1,2.5,0.8,4.4,2,5.7c1.3,1.4,3.1,2.1,5.4,2.1c2.5,0,5.1-0.5,7.5-1.6
		l0.6-0.3v4.2l-0.3,0.1c-1.3,0.6-2.6,1-3.8,1.2C392.7,419.7,391.3,419.8,389.6,419.8 M388.7,394.7c-3.1,0-5.6,1.1-7.4,3.3
		c-1.8,2.2-2.8,5.2-2.8,9c0,3.7,1,6.7,3,8.8c2,2.1,4.7,3.1,8.1,3.1c1.6,0,3-0.1,4.1-0.4c1-0.2,2.2-0.6,3.3-1.1v-2.3
		c-2.4,0.9-4.8,1.4-7.3,1.4c-2.6,0-4.6-0.8-6.1-2.3c-1.4-1.5-2.2-3.8-2.3-6.7l0-0.4h16.7v-1.9c0-3.1-0.9-5.7-2.5-7.6
		C393.9,395.7,391.6,394.7,388.7,394.7 M395,405h-13.5l0-0.5c0.2-2.3,0.9-4.2,2.2-5.5c1.2-1.4,2.9-2,5-2c2,0,3.6,0.7,4.7,2
		c1.1,1.3,1.6,3.2,1.6,5.6V405z M382.4,404.1h11.7c-0.1-2-0.5-3.5-1.4-4.6c-1-1.1-2.3-1.7-4.1-1.7c-1.8,0-3.2,0.6-4.3,1.8
		C383.3,400.7,382.7,402.2,382.4,404.1"/>
	<path class="st1" d="M422.9,418.9v-15.6c0-2-0.4-3.4-1.3-4.4c-0.9-1-2.3-1.5-4.2-1.5c-2.5,0-4.4,0.7-5.6,2.1
		c-1.2,1.4-1.8,3.6-1.8,6.8v12.7h-3.7v-24.2h3l0.6,3.3h0.2c0.7-1.2,1.8-2.1,3.2-2.8c1.4-0.7,2.9-1,4.5-1c2.9,0,5.1,0.7,6.6,2.1
		c1.5,1.4,2.2,3.6,2.2,6.7v15.8H422.9z"/>
	<path class="st1" d="M427,419.4h-4.5v-16.1c0-1.9-0.4-3.2-1.2-4.1c-0.8-0.9-2.1-1.3-3.9-1.3c-2.4,0-4.1,0.6-5.2,1.9
		c-1.1,1.3-1.7,3.5-1.7,6.5v13.1h-4.5v-25h3.8l0.5,2.9c0.7-0.9,1.7-1.7,2.9-2.3c1.4-0.7,3-1,4.7-1c3,0,5.3,0.7,6.9,2.2
		c1.6,1.5,2.3,3.9,2.3,7V419.4z M423.3,418.5h2.8v-15.3c0-3-0.7-5.1-2.1-6.4c-1.4-1.3-3.5-2-6.3-2c-1.6,0-3,0.3-4.3,0.9
		c-1.3,0.6-2.3,1.5-3,2.6l-0.1,0.2h-0.8l-0.6-3.3h-2.2v23.3h2.8v-12.3c0-3.2,0.6-5.6,1.9-7c1.3-1.5,3.2-2.2,5.9-2.2
		c2,0,3.6,0.5,4.5,1.6c1,1,1.5,2.6,1.5,4.7V418.5z"/>
	<path class="st1" d="M443.4,416.3c0.6,0,1.3,0,1.9-0.1c0.6-0.1,1.1-0.2,1.4-0.3v2.8c-0.4,0.2-1,0.3-1.8,0.5
		c-0.8,0.1-1.5,0.2-2.1,0.2c-4.7,0-7-2.5-7-7.4v-14.4h-3.5v-1.8l3.5-1.5l1.5-5.2h2.1v5.6h7v2.8h-7v14.2c0,1.5,0.3,2.6,1,3.3
		C441.3,416,442.2,416.3,443.4,416.3"/>
	<path class="st1" d="M442.9,419.8c-4.9,0-7.4-2.6-7.4-7.8V398H432v-2.5l3.5-1.6l1.6-5.3h2.9v5.6h7v3.7h-7v13.8
		c0,1.3,0.3,2.4,0.9,3.1c0.6,0.7,1.4,1,2.5,1c0.6,0,1.2,0,1.8-0.1c0.6-0.1,1-0.2,1.4-0.3l0.5-0.2v3.6l-0.2,0.1
		c-0.4,0.2-1,0.4-1.9,0.5C444.3,419.7,443.5,419.8,442.9,419.8 M432.9,397.2h3.5V412c0,4.7,2.2,7,6.6,7c0.6,0,1.3-0.1,2-0.2
		c0.6-0.1,1-0.2,1.4-0.3v-2c-0.3,0.1-0.6,0.1-0.9,0.2c-0.6,0.1-1.3,0.1-1.9,0.1c-1.3,0-2.4-0.4-3.2-1.3c-0.8-0.9-1.1-2.1-1.1-3.6
		v-14.7h7v-2h-7v-5.6h-1.4l-1.5,5l-3.4,1.5V397.2z"/>
	<path class="st1" d="M485.2,410.3c0,2.8-1,5.1-3.1,6.6c-2.1,1.6-4.9,2.4-8.4,2.4c-3.8,0-6.8-0.5-8.8-1.5v-3.6
		c1.3,0.6,2.8,1,4.3,1.3c1.6,0.3,3.1,0.5,4.6,0.5c2.5,0,4.4-0.5,5.6-1.4c1.3-0.9,1.9-2.3,1.9-4c0-1.1-0.2-2-0.7-2.7
		c-0.4-0.7-1.2-1.4-2.2-2c-1.1-0.6-2.7-1.3-4.8-2.1c-3-1.1-5.1-2.3-6.4-3.8c-1.3-1.5-1.9-3.4-1.9-5.8c0-2.5,0.9-4.5,2.8-5.9
		c1.9-1.5,4.3-2.2,7.4-2.2c3.2,0,6.2,0.6,8.8,1.8l-1.2,3.3c-2.7-1.1-5.2-1.7-7.8-1.7c-2,0-3.5,0.4-4.7,1.3c-1.1,0.9-1.7,2-1.7,3.6
		c0,1.1,0.2,2,0.6,2.7c0.4,0.7,1.1,1.4,2.1,2c1,0.6,2.5,1.3,4.5,2c3.4,1.2,5.7,2.5,7,3.9C484.6,406.3,485.2,408.1,485.2,410.3"/>
	<path class="st1" d="M473.7,419.8c-3.9,0-6.9-0.5-9-1.5l-0.2-0.1v-4.5l0.6,0.2c1.3,0.5,2.7,1,4.2,1.3c1.5,0.3,3.1,0.5,4.5,0.5
		c2.4,0,4.2-0.4,5.4-1.3c1.2-0.9,1.7-2.1,1.7-3.6c0-1-0.2-1.9-0.6-2.5c-0.4-0.7-1.1-1.3-2.1-1.8c-1-0.6-2.6-1.3-4.7-2
		c-3.1-1.1-5.3-2.4-6.6-3.9c-1.3-1.5-2-3.6-2-6c0-2.6,1-4.7,3-6.3c1.9-1.5,4.5-2.3,7.7-2.3c3.2,0,6.3,0.6,9,1.8l0.4,0.2l-1.5,4.1
		l-0.4-0.2c-2.6-1.1-5.2-1.6-7.6-1.6c-1.9,0-3.4,0.4-4.4,1.2c-1,0.8-1.5,1.8-1.5,3.2c0,1,0.2,1.9,0.6,2.5c0.4,0.6,1,1.3,1.9,1.8
		c1,0.6,2.4,1.2,4.4,1.9c3.4,1.2,5.8,2.6,7.1,4c1.3,1.5,2,3.4,2,5.7c0,3-1.1,5.3-3.3,7C480.3,419,477.3,419.8,473.7,419.8
		 M465.4,417.6c2,0.9,4.8,1.3,8.4,1.3c3.4,0,6.1-0.8,8.1-2.3c2-1.5,2.9-3.6,2.9-6.3c0-2.1-0.6-3.8-1.8-5.1c-1.2-1.3-3.5-2.6-6.8-3.8
		c-2-0.7-3.6-1.4-4.6-2c-1-0.6-1.8-1.3-2.2-2.1c-0.4-0.8-0.7-1.8-0.7-3c0-1.6,0.6-3,1.8-3.9c1.2-0.9,2.8-1.4,4.9-1.4
		c2.4,0,5,0.5,7.5,1.5l0.9-2.5c-2.5-1-5.3-1.6-8.3-1.6c-3,0-5.4,0.7-7.1,2.1c-1.8,1.4-2.6,3.2-2.6,5.6c0,2.2,0.6,4.1,1.8,5.5
		c1.2,1.4,3.3,2.7,6.2,3.7c2.2,0.8,3.8,1.5,4.9,2.1c1.1,0.6,1.9,1.3,2.4,2.1c0.5,0.8,0.7,1.8,0.7,3c0,1.8-0.7,3.3-2.1,4.3
		c-1.3,1-3.3,1.5-5.9,1.5c-1.5,0-3.1-0.2-4.7-0.5c-1.3-0.3-2.6-0.7-3.8-1.1V417.6z"/>
	<path class="st1" d="M513.7,406.8c0,3.9-1,7-3,9.2c-2,2.2-4.7,3.3-8.2,3.3c-2.2,0-4.1-0.5-5.8-1.5c-1.7-1-3-2.5-3.9-4.4
		c-0.9-1.9-1.4-4.1-1.4-6.7c0-3.9,1-7,3-9.2c2-2.2,4.7-3.3,8.2-3.3c3.4,0,6.1,1.1,8.1,3.4C512.7,399.9,513.7,403,513.7,406.8
		 M495.3,406.8c0,3.1,0.6,5.4,1.9,7.1c1.2,1.6,3,2.4,5.4,2.4c2.4,0,4.2-0.8,5.5-2.4c1.2-1.6,1.9-4,1.9-7.1c0-3.1-0.6-5.4-1.9-7
		c-1.2-1.6-3.1-2.4-5.5-2.4c-2.4,0-4.2,0.8-5.4,2.4C495.9,401.4,495.3,403.7,495.3,406.8"/>
	<path class="st1" d="M502.5,419.8c-2.2,0-4.2-0.5-6-1.6c-1.7-1.1-3.1-2.6-4-4.5c-0.9-1.9-1.4-4.2-1.4-6.8c0-4,1-7.2,3.1-9.5
		c2-2.3,4.9-3.4,8.5-3.4c3.5,0,6.3,1.2,8.4,3.5c2.1,2.3,3.1,5.5,3.1,9.4c0,4-1,7.2-3.1,9.5C509,418.6,506.1,419.8,502.5,419.8
		 M502.6,394.7c-3.4,0-6,1.1-7.9,3.2c-1.9,2.1-2.8,5.1-2.8,8.9c0,2.5,0.4,4.6,1.3,6.5c0.9,1.8,2.1,3.2,3.7,4.2
		c1.6,1,3.5,1.5,5.5,1.5c3.4,0,6-1.1,7.9-3.2c1.9-2.1,2.9-5.1,2.9-8.9c0-3.7-1-6.7-2.9-8.8C508.5,395.8,505.9,394.7,502.6,394.7
		 M502.6,416.7c-2.5,0-4.5-0.9-5.8-2.6c-1.3-1.7-1.9-4.1-1.9-7.3c0-3.2,0.6-5.7,1.9-7.3c1.3-1.7,3.2-2.5,5.8-2.5
		c2.6,0,4.5,0.9,5.8,2.6c1.3,1.7,1.9,4.1,1.9,7.3c0,3.2-0.7,5.7-1.9,7.3C507,415.9,505.1,416.7,502.6,416.7 M502.5,397.9
		c-2.3,0-3.9,0.7-5.1,2.2c-1.2,1.5-1.7,3.8-1.7,6.8c0,3,0.6,5.3,1.8,6.8c1.2,1.5,2.8,2.3,5.1,2.3c2.3,0,3.9-0.7,5.1-2.2
		c1.2-1.5,1.8-3.8,1.8-6.8c0-3-0.6-5.2-1.8-6.7C506.5,398.6,504.8,397.9,502.5,397.9"/>
	<path class="st1" d="M532.6,397.6h-6.2v21.3h-3.7v-21.3h-4.3v-1.7l4.3-1.3v-1.3c0-5.9,2.6-8.9,7.8-8.9c1.3,0,2.8,0.3,4.5,0.8
		l-0.9,2.9c-1.4-0.5-2.6-0.7-3.6-0.7c-1.4,0-2.4,0.5-3.1,1.4c-0.7,0.9-1,2.4-1,4.4v1.6h6.2V397.6z"/>
	<path class="st1" d="M526.9,419.4h-4.5V398H518v-2.4l4.3-1.3v-1c0-6.2,2.8-9.3,8.2-9.3c1.3,0,2.9,0.3,4.6,0.8l0.4,0.1l-1.2,3.8
		l-0.4-0.1c-3.2-1-5.2-0.9-6.2,0.5c-0.6,0.8-0.9,2.2-0.9,4.2v1.1h6.2v3.7h-6.2V419.4z M523.2,418.5h2.8v-21.3h6.2v-2H526v-2
		c0-2.1,0.4-3.7,1.1-4.7c1.2-1.7,3.4-2,6.8-1l0.7-2.1c-1.5-0.4-2.8-0.6-4-0.6c-4.9,0-7.4,2.8-7.4,8.5v1.7l-4.3,1.3v0.9h4.3V418.5z"
		/>
	<path class="st1" d="M546.4,416.3c0.6,0,1.3,0,1.9-0.1c0.6-0.1,1.1-0.2,1.4-0.3v2.8c-0.4,0.2-1,0.3-1.8,0.5
		c-0.8,0.1-1.5,0.2-2.1,0.2c-4.7,0-7-2.5-7-7.4v-14.4h-3.5v-1.8l3.5-1.5l1.5-5.2h2.1v5.6h7v2.8h-7v14.2c0,1.5,0.3,2.6,1,3.3
		C544.2,416,545.2,416.3,546.4,416.3"/>
	<path class="st1" d="M545.8,419.8c-4.9,0-7.4-2.6-7.4-7.8V398h-3.5v-2.5l3.5-1.6l1.6-5.3h2.9v5.6h7v3.7h-7v13.8
		c0,1.3,0.3,2.4,0.9,3.1c0.6,0.7,1.4,1,2.5,1c0.6,0,1.2,0,1.8-0.1c0.6-0.1,1-0.2,1.4-0.3l0.5-0.2v3.6l-0.2,0.1
		c-0.4,0.2-1,0.4-1.9,0.5C547.2,419.7,546.5,419.8,545.8,419.8 M535.8,397.2h3.5V412c0,4.7,2.2,7,6.6,7c0.6,0,1.3-0.1,2-0.2
		c0.6-0.1,1-0.2,1.4-0.3v-2c-0.3,0.1-0.6,0.1-0.9,0.2c-0.6,0.1-1.3,0.1-1.9,0.1c-1.3,0-2.4-0.4-3.2-1.3c-0.8-0.9-1.1-2.1-1.1-3.6
		v-14.7h7v-2h-7v-5.6h-1.4l-1.5,5l-3.4,1.5V397.2z"/>
	<path class="st1" d="M575.8,418.9l-4.4-14.2c-0.3-0.9-0.8-2.8-1.6-5.9h-0.2c-0.6,2.6-1.1,4.6-1.5,6l-4.6,14.1h-4.2l-6.6-24.2h3.8
		c1.6,6.1,2.7,10.7,3.6,13.9c0.8,3.2,1.3,5.3,1.4,6.4h0.2c0.2-0.8,0.4-1.9,0.8-3.3c0.4-1.3,0.7-2.4,0.9-3.2l4.4-13.9h4l4.3,13.9
		c0.8,2.5,1.4,4.7,1.7,6.4h0.2c0.1-0.5,0.2-1.3,0.5-2.4c0.3-1.1,1.8-7,4.6-17.8h3.8l-6.7,24.2H575.8z"/>
	<path class="st1" d="M580.5,419.4h-5l-4.5-14.5c-0.2-0.7-0.6-2.2-1.2-4.6c-0.5,1.9-0.9,3.5-1.2,4.6l-4.7,14.4H559l-6.8-25h4.7
		l3.6,14.2c0.5,2,0.9,3.6,1.1,4.7c0.1-0.5,0.3-1,0.4-1.6c0.4-1.3,0.7-2.4,0.9-3.2l4.5-14.2h4.6l4.4,14.2c0.6,1.7,1,3.3,1.3,4.7
		c0.1-0.2,0.1-0.5,0.2-0.7c0.3-1.1,1.8-7.1,4.6-17.8l0.1-0.3h4.7L580.5,419.4z M576.1,418.5h3.7l6.4-23.3h-2.9
		c-2.7,10.5-4.3,16.4-4.5,17.5c-0.3,1.1-0.4,1.9-0.5,2.4l0,0.4h-0.9l-0.1-0.4c-0.3-1.7-0.8-3.8-1.7-6.3l-4.2-13.6h-3.3l-4.3,13.6
		c-0.3,0.8-0.6,1.8-0.9,3.1c-0.4,1.3-0.6,2.4-0.8,3.2l-0.1,0.3h-0.9l0-0.4c-0.1-1.1-0.6-3.2-1.4-6.4l-3.5-13.5h-2.9l6.4,23.3h3.6
		l4.5-13.8c0.4-1.4,1-3.4,1.5-5.9l0.1-0.3h0.9l0.1,0.3c0.8,3.1,1.3,5,1.6,5.9L576.1,418.5z"/>
	<path class="st1" d="M607.6,418.9l-0.7-3.4h-0.2c-1.2,1.5-2.4,2.5-3.6,3.1c-1.2,0.5-2.7,0.8-4.5,0.8c-2.4,0-4.3-0.6-5.6-1.9
		c-1.4-1.2-2-3-2-5.3c0-4.9,3.9-7.4,11.7-7.7l4.1-0.1v-1.5c0-1.9-0.4-3.3-1.2-4.2c-0.8-0.9-2.1-1.4-3.9-1.4c-2,0-4.3,0.6-6.8,1.9
		l-1.1-2.8c1.2-0.6,2.5-1.2,3.9-1.5c1.4-0.4,2.8-0.6,4.3-0.6c2.9,0,5,0.6,6.4,1.9c1.4,1.3,2.1,3.3,2.1,6.2v16.5H607.6z M599.4,416.3
		c2.3,0,4.1-0.6,5.4-1.9c1.3-1.2,1.9-3,1.9-5.2V407l-3.7,0.2c-2.9,0.1-5,0.6-6.3,1.4c-1.3,0.8-1.9,2-1.9,3.7c0,1.3,0.4,2.3,1.2,3
		C596.8,416,597.9,416.3,599.4,416.3"/>
	<path class="st1" d="M598.7,419.8c-2.5,0-4.5-0.7-5.9-2c-1.4-1.3-2.2-3.2-2.2-5.6c0-5.1,4.1-7.9,12.1-8.1l3.7-0.1v-1.1
		c0-1.8-0.4-3.1-1.1-3.9c-0.7-0.8-1.9-1.2-3.6-1.2c-1.9,0-4.2,0.6-6.6,1.8l-0.4,0.2l-1.4-3.6l0.3-0.2c1.2-0.7,2.6-1.2,4-1.6
		c1.4-0.4,2.9-0.6,4.4-0.6c3,0,5.2,0.7,6.7,2c1.5,1.4,2.2,3.5,2.2,6.5v16.9h-3.5l-0.7-3.1c-1.1,1.3-2.2,2.2-3.3,2.7
		C602.1,419.5,600.5,419.8,598.7,419.8 M601.7,397c1.9,0,3.3,0.5,4.2,1.5c0.9,1,1.3,2.5,1.3,4.5v1.9l-4.5,0.1
		c-7.6,0.2-11.3,2.6-11.3,7.2c0,2.1,0.6,3.8,1.9,5c1.3,1.2,3.1,1.7,5.3,1.7c1.7,0,3.2-0.3,4.3-0.8c1.1-0.5,2.3-1.5,3.4-3l0.1-0.2
		h0.7l0.7,3.4h1.9v-16.1c0-2.7-0.7-4.6-1.9-5.8c-1.3-1.2-3.4-1.8-6.1-1.8c-1.4,0-2.8,0.2-4.2,0.5c-1.2,0.3-2.4,0.8-3.5,1.3l0.8,2
		C597.5,397.5,599.7,397,601.7,397 M599.4,416.8c-1.5,0-2.8-0.4-3.6-1.1c-0.9-0.8-1.3-1.9-1.3-3.3c0-1.8,0.7-3.2,2.1-4.1
		c1.4-0.8,3.5-1.3,6.5-1.4l4.1-0.2v2.6c0,2.4-0.7,4.2-2.1,5.6C603.7,416.1,601.8,416.8,599.4,416.8 M606.3,407.5l-3.2,0.1
		c-2.8,0.1-4.9,0.5-6.1,1.3c-1.2,0.7-1.7,1.8-1.7,3.4c0,1.2,0.3,2.1,1.1,2.7c0.7,0.6,1.8,0.9,3.1,0.9c2.2,0,3.9-0.6,5.1-1.8
		c1.2-1.2,1.8-2.8,1.8-4.9V407.5z"/>
	<path class="st1" d="M630.5,394.3c1.1,0,2,0.1,2.9,0.3l-0.5,3.4c-1-0.2-1.9-0.3-2.6-0.3c-2,0-3.6,0.8-5,2.4
		c-1.4,1.6-2.1,3.6-2.1,5.9v13h-3.7v-24.2h3l0.4,4.5h0.2c0.9-1.6,2-2.8,3.2-3.6C627.6,394.7,629,394.3,630.5,394.3"/>
	<path class="st1" d="M623.6,419.4h-4.5v-25h3.8l0.4,3.8c0.8-1.2,1.8-2.2,2.8-2.9c1.3-0.9,2.8-1.4,4.4-1.4c1.1,0,2.1,0.1,3,0.3
		l0.4,0.1l-0.6,4.2l-0.4-0.1c-1-0.2-1.8-0.3-2.6-0.3c-1.8,0-3.4,0.7-4.7,2.2c-1.3,1.5-2,3.4-2,5.7V419.4z M619.9,418.5h2.8V406
		c0-2.5,0.7-4.6,2.2-6.2c1.5-1.7,3.3-2.5,5.3-2.5c0.7,0,1.4,0.1,2.3,0.2l0.4-2.5c-0.7-0.1-1.5-0.2-2.4-0.2c-1.4,0-2.7,0.4-3.9,1.2
		c-1.2,0.8-2.2,2-3.1,3.5l-0.1,0.2h-0.8l-0.4-4.5h-2.2V418.5z"/>
	<path class="st1" d="M649.7,419.4c-3.6,0-6.4-1.1-8.5-3.3c-2.1-2.2-3.1-5.2-3.1-9.1c0-3.9,1-7,2.9-9.3s4.5-3.4,7.7-3.4
		c3,0,5.4,1,7.2,3c1.8,2,2.6,4.6,2.6,7.9v2.3h-16.6c0.1,2.8,0.8,5,2.1,6.5c1.4,1.5,3.3,2.2,5.7,2.2c2.6,0,5.2-0.5,7.7-1.6v3.3
		c-1.3,0.6-2.5,1-3.7,1.2C652.7,419.2,651.3,419.4,649.7,419.4 M648.7,397.4c-1.9,0-3.5,0.6-4.6,1.9c-1.2,1.3-1.8,3-2,5.2h12.6
		c0-2.3-0.5-4.1-1.5-5.3C652.1,398,650.6,397.4,648.7,397.4"/>
	<path class="st1" d="M649.7,419.8c-3.7,0-6.6-1.1-8.8-3.4c-2.1-2.2-3.2-5.4-3.2-9.4c0-4,1-7.2,3-9.6c2-2.4,4.7-3.6,8.1-3.6
		c3.1,0,5.7,1.1,7.5,3.1c1.8,2.1,2.8,4.8,2.8,8.2v2.7h-16.6c0.1,2.5,0.8,4.4,2,5.7c1.3,1.4,3.1,2.1,5.4,2.1c2.5,0,5.1-0.5,7.5-1.6
		l0.6-0.3v4.2l-0.3,0.1c-1.3,0.6-2.6,1-3.8,1.2C652.8,419.7,651.4,419.8,649.7,419.8 M648.8,394.7c-3.1,0-5.6,1.1-7.4,3.3
		c-1.8,2.2-2.8,5.2-2.8,9c0,3.7,1,6.7,3,8.8c2,2.1,4.7,3.1,8.1,3.1c1.6,0,3-0.1,4.1-0.4c1-0.2,2.2-0.6,3.3-1.1v-2.3
		c-2.4,0.9-4.8,1.4-7.3,1.4c-2.6,0-4.6-0.8-6.1-2.3c-1.4-1.5-2.2-3.8-2.3-6.7l0-0.4h16.7v-1.9c0-3.1-0.9-5.7-2.5-7.6
		C653.9,395.7,651.6,394.7,648.8,394.7 M655.1,405h-13.5l0-0.5c0.2-2.3,0.9-4.2,2.2-5.5c1.2-1.4,2.9-2,5-2c2,0,3.6,0.7,4.7,2
		c1.1,1.3,1.6,3.2,1.6,5.6V405z M642.5,404.1h11.7c-0.1-2-0.5-3.5-1.4-4.6c-1-1.1-2.3-1.7-4.1-1.7c-1.8,0-3.2,0.6-4.3,1.8
		C643.4,400.7,642.7,402.2,642.5,404.1"/>
	<path class="st1" d="M78.4,282.7c0,18.3-4.6,32.7-13.9,43.2c-9.3,10.5-22.1,15.7-38.6,15.7c-16.9,0-29.9-5.2-39-15.5
		c-9.2-10.3-13.7-24.9-13.7-43.7c0-18.6,4.6-33.1,13.8-43.3C-4,229,9.1,223.8,26,223.8c16.4,0,29.3,5.2,38.5,15.7
		C73.8,249.9,78.4,264.3,78.4,282.7 M-12.8,282.7c0,15.5,3.3,27.3,9.9,35.3c6.6,8,16.2,12,28.8,12c12.7,0,22.3-4,28.7-12
		c6.5-8,9.7-19.8,9.7-35.3c0-15.4-3.2-27.1-9.7-35c-6.4-8-16-11.9-28.6-11.9c-12.7,0-22.3,4-28.9,12
		C-9.5,255.8-12.8,267.4-12.8,282.7"/>
	<path class="st1" d="M25.8,343c-17.2,0-30.6-5.4-40-15.9c-9.3-10.5-14.1-25.5-14.1-44.5c0-18.9,4.7-33.7,14.1-44.2
		c9.4-10.5,22.9-15.8,40.1-15.8c16.7,0,30,5.4,39.5,16.1c9.4,10.6,14.2,25.5,14.2,44.1c0,18.6-4.8,33.4-14.2,44.1
		C56,337.5,42.6,343,25.8,343 M26,225.1c-16.5,0-29.3,5-38.2,15c-8.9,10-13.5,24.3-13.5,42.5c0,18.4,4.5,32.8,13.4,42.8
		c8.9,10,21.7,15,38.1,15c16,0,28.7-5.1,37.7-15.3c9-10.2,13.6-24.5,13.6-42.4c0-18-4.6-32.2-13.5-42.4
		C54.6,230.2,42,225.1,26,225.1 M25.8,331.3c-12.9,0-22.9-4.2-29.8-12.5c-6.8-8.2-10.2-20.4-10.2-36.1c0-15.5,3.4-27.6,10.2-35.8
		c6.8-8.3,16.9-12.5,29.9-12.5c13,0,22.9,4.2,29.6,12.4c6.6,8.2,10,20.2,10,35.9c0,15.8-3.4,27.9-10,36.1
		C48.9,327.1,38.9,331.3,25.8,331.3 M26,237c-12.2,0-21.6,3.9-27.9,11.6c-6.4,7.7-9.6,19.2-9.6,34.1c0,15.1,3.2,26.7,9.6,34.5
		c6.3,7.7,15.7,11.6,27.8,11.6c12.2,0,21.6-3.9,27.7-11.5c6.3-7.7,9.4-19.3,9.4-34.5c0-15-3.2-26.5-9.4-34.2
		C47.5,240.9,38.2,237,26,237"/>
	<path class="st1" d="M160.7,340.1v-55.5c0-7-1.6-12.2-4.8-15.7c-3.2-3.4-8.2-5.2-15-5.2c-9,0-15.6,2.4-19.7,7.3
		c-4.2,4.9-6.3,12.9-6.3,24v45h-13v-85.8h10.6l2.1,11.7h0.6c2.7-4.2,6.4-7.5,11.2-9.8c4.8-2.3,10.2-3.5,16.1-3.5
		c10.3,0,18.1,2.5,23.3,7.5c5.2,5,7.8,13,7.8,23.9v56H160.7z"/>
	<path class="st1" d="M175,341.4h-15.6v-56.8c0-6.6-1.5-11.6-4.4-14.8c-2.9-3.2-7.6-4.8-14-4.8c-8.5,0-14.9,2.3-18.8,6.8
		c-3.9,4.6-6,12.4-6,23.2v46.3h-15.6V253h12.9l1.9,10.5c2.7-3.5,6.2-6.4,10.4-8.4c5-2.4,10.5-3.6,16.6-3.6c10.6,0,18.8,2.6,24.2,7.8
		c5.5,5.2,8.2,13.6,8.2,24.9V341.4z M162,338.8h10.4v-54.7c0-10.5-2.5-18.3-7.4-23c-5-4.7-12.5-7.1-22.4-7.1
		c-5.7,0-10.9,1.1-15.5,3.4c-4.6,2.2-8.2,5.4-10.7,9.4l-0.4,0.6h-2.4l-2.1-11.7h-8.2v83.3h10.4v-43.7c0-11.4,2.2-19.8,6.6-24.9
		c4.4-5.1,11.4-7.7,20.7-7.7c7.1,0,12.5,1.9,15.9,5.6c3.4,3.7,5.1,9.2,5.1,16.5V338.8z"/>
	<path class="st1" d="M236.6,341.7c-12.7,0-22.7-3.9-30-11.6c-7.3-7.7-11-18.4-11-32.2c0-13.8,3.4-24.8,10.2-33
		c6.8-8.1,16-12.2,27.4-12.2c10.8,0,19.3,3.5,25.5,10.6c6.3,7.1,9.4,16.4,9.4,28v8.2h-59.1c0.3,10.1,2.8,17.7,7.6,22.9
		c4.8,5.2,11.6,7.8,20.4,7.8c9.2,0,18.4-1.9,27.4-5.8v11.6c-4.6,2-8.9,3.4-13,4.3C247.4,341.2,242.4,341.7,236.6,341.7 M233.1,263.6
		c-6.9,0-12.4,2.2-16.5,6.7c-4.1,4.5-6.5,10.7-7.2,18.6h44.9c0-8.2-1.8-14.5-5.5-18.8C245.1,265.8,239.9,263.6,233.1,263.6"/>
	<path class="st1" d="M236.6,343c-13,0-23.4-4-31-12c-7.5-7.9-11.4-19.1-11.4-33.1c0-14.1,3.5-25.4,10.5-33.8
		c7-8.4,16.6-12.7,28.4-12.7c11.1,0,20,3.7,26.5,11c6.4,7.3,9.7,17,9.7,28.8v9.5h-59.1c0.4,9.1,2.9,16.1,7.2,20.8
		c4.6,4.9,11.1,7.4,19.5,7.4c9,0,18.1-1.9,26.9-5.7l1.8-0.8V337l-0.8,0.3c-4.6,2-9.1,3.5-13.3,4.3C247.6,342.5,242.5,343,236.6,343
		 M233.3,254c-11,0-19.9,4-26.5,11.8c-6.6,7.9-9.9,18.7-9.9,32.1c0,13.3,3.6,23.9,10.6,31.3c7,7.4,16.8,11.2,29.1,11.2
		c5.7,0,10.6-0.4,14.6-1.3c3.8-0.8,7.8-2.1,12-3.9v-8.8c-8.6,3.4-17.4,5.2-26.1,5.2c-9.1,0-16.3-2.8-21.3-8.2
		c-5-5.4-7.7-13.4-8-23.8l0-1.3h59.2v-6.9c0-11.2-3-20.3-9.1-27.1C251.9,257.4,243.6,254,233.3,254 M255.5,290.3H208l0.1-1.4
		c0.8-8.2,3.3-14.7,7.6-19.4c4.3-4.7,10.2-7.2,17.4-7.2c7.1,0,12.8,2.4,16.6,7c3.8,4.6,5.8,11.2,5.8,19.7V290.3z M210.8,287.7H253
		c-0.2-7.2-1.9-12.8-5.2-16.7c-3.4-4.1-8.2-6.1-14.7-6.1c-6.6,0-11.7,2.1-15.5,6.3C213.9,275.2,211.7,280.7,210.8,287.7"/>
	<polygon class="st1" points="327.5,340.1 314.2,340.1 314.2,237.4 278,237.4 278,225.6 363.8,225.6 363.8,237.4 327.5,237.4 	"/>
	<path class="st1" d="M328.8,341.4h-15.9V238.7h-36.3v-14.4h88.4v14.4h-36.3V341.4z M315.5,338.8h10.7V236.2h36.3v-9.3h-83.3v9.3
		h36.3V338.8z"/>
	<path class="st1" d="M418.2,252.7c3.8,0,7.2,0.3,10.3,0.9l-1.8,12.1c-3.6-0.8-6.7-1.2-9.4-1.2c-6.9,0-12.9,2.8-17.8,8.5
		c-4.9,5.6-7.4,12.7-7.4,21.1v46h-13v-85.8h10.7l1.5,15.9h0.6c3.2-5.6,7-9.9,11.5-12.9C407.9,254.2,412.8,252.7,418.2,252.7"/>
	<path class="st1" d="M393.3,341.4h-15.6V253H391l1.3,14.1c3-4.6,6.5-8.2,10.4-10.9c4.7-3.2,9.9-4.8,15.5-4.8c3.9,0,7.4,0.3,10.5,1
		l1.2,0.2l-2.2,14.6l-1.3-0.3c-3.4-0.8-6.5-1.1-9.1-1.1c-6.6,0-12.1,2.6-16.8,8c-4.7,5.4-7.1,12.2-7.1,20.2V341.4z M380.3,338.8
		h10.4v-44.8c0-8.7,2.6-16.1,7.7-21.9c5.2-5.9,11.5-8.9,18.8-8.9c2.4,0,5.2,0.3,8.3,0.9l1.4-9.5c-2.6-0.5-5.6-0.7-8.8-0.7
		c-5.1,0-9.8,1.5-14.1,4.3c-4.3,2.9-8,7.1-11.1,12.5l-0.4,0.6h-2.5l-1.5-15.9h-8.3V338.8z"/>
	<path class="st1" d="M456.7,254.3V310c0,7,1.6,12.2,4.8,15.7c3.2,3.4,8.2,5.2,15,5.2c9,0,15.5-2.5,19.7-7.4
		c4.2-4.9,6.2-12.9,6.2-24v-45.1h13v85.8h-10.7l-1.9-11.5h-0.7c-2.7,4.2-6.4,7.5-11.1,9.7c-4.7,2.2-10.1,3.4-16.2,3.4
		c-10.4,0-18.3-2.5-23.5-7.4c-5.2-5-7.8-12.9-7.8-23.8v-56.1H456.7z"/>
	<path class="st1" d="M474.8,343c-10.7,0-18.9-2.6-24.3-7.8c-5.4-5.2-8.2-13.5-8.2-24.7V253H458v57c0,6.6,1.5,11.6,4.4,14.8
		c2.9,3.2,7.6,4.8,14,4.8c8.5,0,14.8-2.3,18.7-6.9c3.9-4.6,5.9-12.5,5.9-23.2V253h15.6v88.4h-13.1l-1.7-10.3
		c-2.7,3.5-6.1,6.3-10.3,8.3C486.7,341.8,481,343,474.8,343 M444.9,255.6v54.9c0,10.5,2.5,18.2,7.4,22.9c4.9,4.7,12.5,7.1,22.6,7.1
		c5.8,0,11.1-1.1,15.6-3.2c4.5-2.1,8-5.2,10.5-9.2l0.4-0.6h2.5l1.9,11.5h8.4v-83.3h-10.4v43.8c0,11.4-2.2,19.7-6.5,24.9
		c-4.4,5.2-11.3,7.8-20.7,7.8c-7.1,0-12.5-1.9-15.9-5.6c-3.4-3.7-5.1-9.2-5.1-16.5v-54.4H444.9z"/>
	<path class="st1" d="M598.3,316.7c0,8-3,14.1-8.9,18.5c-6,4.3-14.3,6.5-25.1,6.5c-11.4,0-20.3-1.8-26.6-5.4v-12.1
		c4.1,2.1,8.5,3.7,13.3,4.9c4.7,1.2,9.3,1.8,13.7,1.8c6.8,0,12-1.1,15.7-3.3c3.7-2.2,5.5-5.5,5.5-9.9c0-3.3-1.4-6.2-4.3-8.6
		c-2.9-2.4-8.6-5.2-17-8.4c-8-3-13.7-5.6-17-7.8c-3.4-2.2-5.9-4.7-7.5-7.6c-1.6-2.8-2.5-6.2-2.5-10.1c0-7,2.8-12.5,8.5-16.6
		c5.7-4,13.5-6.1,23.4-6.1c9.2,0,18.3,1.9,27.1,5.6l-4.6,10.6c-8.6-3.5-16.4-5.3-23.4-5.3c-6.2,0-10.8,1-13.9,2.9
		c-3.1,1.9-4.7,4.6-4.7,8c0,2.3,0.6,4.3,1.8,5.9c1.2,1.6,3.1,3.2,5.7,4.6c2.6,1.5,7.6,3.6,15,6.3c10.2,3.7,17.1,7.4,20.6,11.2
		C596.5,306.3,598.3,311,598.3,316.7"/>
	<path class="st1" d="M564.3,343c-11.6,0-20.7-1.9-27.3-5.6l-0.7-0.4v-14.9l1.9,0.9c4,2,8.4,3.7,13,4.8c4.6,1.2,9.1,1.8,13.3,1.8
		c6.5,0,11.6-1,15-3.1c3.3-1.9,4.8-4.8,4.8-8.8c0-3-1.3-5.4-3.9-7.6c-2.8-2.3-8.4-5-16.6-8.2c-8-3-13.8-5.7-17.3-7.9
		c-3.5-2.3-6.2-5-7.9-8c-1.8-3-2.6-6.6-2.6-10.7c0-7.4,3.1-13.3,9.1-17.6c5.9-4.2,14-6.3,24.2-6.3c9.4,0,18.7,1.9,27.6,5.7l1.2,0.5
		l-5.6,12.9l-1.2-0.5c-8.4-3.5-16.1-5.2-22.9-5.2c-5.9,0-10.4,0.9-13.3,2.7c-2.8,1.7-4.1,3.9-4.1,6.9c0,2,0.5,3.7,1.5,5.1
		c1.1,1.5,2.8,2.9,5.3,4.3c2.5,1.4,7.5,3.5,14.9,6.3c10.5,3.8,17.4,7.6,21.1,11.5c3.8,4,5.7,9.1,5.7,15.1c0,8.4-3.2,15-9.5,19.5
		C584,340.7,575.3,343,564.3,343 M539,335.5c6.1,3.2,14.6,4.9,25.3,4.9c10.4,0,18.6-2.1,24.3-6.3c5.7-4.1,8.4-9.8,8.4-17.4
		c0-5.3-1.7-9.8-5-13.3c-3.4-3.6-10.2-7.3-20.1-10.9c-7.6-2.8-12.5-4.9-15.2-6.4c-2.8-1.5-4.8-3.2-6.1-5c-1.3-1.8-2-4.1-2-6.6
		c0-3.9,1.8-6.9,5.3-9.1c3.3-2.1,8.2-3.1,14.6-3.1c6.8,0,14.5,1.7,22.7,5l3.6-8.2c-8.3-3.3-16.8-5-25.4-5c-9.6,0-17.2,2-22.7,5.8
		c-5.4,3.8-8,8.9-8,15.5c0,3.7,0.8,6.8,2.3,9.5c1.5,2.6,3.9,5,7.1,7.1c3.3,2.2,8.9,4.7,16.8,7.7c8.6,3.3,14.3,6.1,17.3,8.6
		c3.2,2.6,4.8,5.8,4.8,9.6c0,4.9-2.1,8.6-6.1,11c-3.8,2.3-9.3,3.4-16.3,3.4c-4.5,0-9.2-0.6-14-1.8c-4.1-1-8-2.4-11.7-4.1V335.5z"/>
	<path class="st1" d="M647.2,330.9c2.3,0,4.5-0.2,6.7-0.5c2.1-0.3,3.8-0.7,5.1-1.1v9.9c-1.4,0.7-3.5,1.2-6.2,1.7
		c-2.7,0.4-5.2,0.7-7.4,0.7c-16.6,0-24.9-8.7-24.9-26.2v-51.1h-12.3v-6.3l12.3-5.4l5.5-18.3h7.5v19.9h24.9v10.1h-24.9v50.5
		c0,5.2,1.2,9.1,3.7,11.9C639.5,329.6,642.9,330.9,647.2,330.9"/>
	<path class="st1" d="M645.3,343c-17.4,0-26.2-9.3-26.2-27.5v-49.8h-12.3v-8.4l12.5-5.5l5.6-18.7h9.8V253h24.9v12.7h-24.9v49.2
		c0,4.8,1.1,8.5,3.4,11c2.2,2.5,5.2,3.7,9.1,3.7c2.2,0,4.4-0.2,6.5-0.5c2.1-0.3,3.7-0.7,4.9-1l1.6-0.5v12.5l-0.7,0.4
		c-1.5,0.7-3.7,1.3-6.6,1.8C650.1,342.7,647.5,343,645.3,343 M609.4,263.1h12.3v52.3c0,16.8,7.7,24.9,23.6,24.9
		c2.1,0,4.5-0.2,7.2-0.6c2.2-0.4,3.9-0.8,5.1-1.3V331c-1,0.2-2.2,0.5-3.6,0.7c-2.2,0.3-4.5,0.5-6.9,0.5c-4.6,0-8.4-1.5-11.1-4.6
		c-2.7-3-4-7.3-4-12.8v-51.8H657v-7.5h-24.9v-19.9h-5.3l-5.4,18l-12.1,5.3V263.1z"/>
</g>
</svg>
