<?xml version="1.0" encoding="utf-8"?>
<!-- Generator: Adobe Illustrator 26.0.3, SVG Export Plug-In . SVG Version: 6.00 Build 0)  -->
<svg version="1.0" id="Layer_1" xmlns="http://www.w3.org/2000/svg" xmlns:xlink="http://www.w3.org/1999/xlink" x="0px" y="0px"
	 viewBox="0 0 276 168" style="enable-background:new 0 0 276 168;" xml:space="preserve">
<style type="text/css">
	.st0{fill:#717592;}
	.st1{fill:#6ABF4B;}
</style>
<g id="Page-1">
	<g id="_20200729-OneTrust-RGB-Color">
		<path id="Fill-1" class="st0" d="M47.3,104.1h0.5c0.4,0,0.7-0.1,1-0.3c0.4-0.4,0.4-1.1,0-1.5c-0.3-0.2-0.6-0.3-0.9-0.2h-0.6V104.1
			z M50.6,103c0,0.6-0.2,1.3-0.7,1.7c-0.6,0.4-1.3,0.6-2,0.6h-0.6v2.5h-1.5v-7H48c0.7,0,1.4,0.1,1.9,0.6
			C50.4,101.8,50.7,102.4,50.6,103L50.6,103z"/>
		<path id="Fill-2" class="st0" d="M53.9,103.9h0.5c0.3,0,0.7-0.1,1-0.2c0.2-0.2,0.4-0.4,0.3-0.7c0-0.3-0.1-0.5-0.3-0.7
			c-0.3-0.2-0.7-0.2-1-0.2h-0.5V103.9z M53.9,105.1v2.7h-1.5v-7h2c0.7-0.1,1.5,0.1,2.1,0.5c0.5,0.4,0.7,1,0.7,1.6
			c0,0.4-0.1,0.8-0.3,1.1c-0.2,0.3-0.6,0.6-1,0.8c1,1.6,1.7,2.6,2,3h-1.6l-1.6-2.7L53.9,105.1z"/>
		<polygon id="Fill-3" class="st0" points="59.3,107.8 60.8,107.8 60.8,100.8 59.3,100.8 		"/>
		<path id="Fill-4" class="st0" d="M67,100.8h1.5l-2.4,7h-1.6l-2.4-7h1.5L65,105c0.1,0.2,0.2,0.5,0.2,0.8s0.1,0.6,0.1,0.7
			c0.1-0.5,0.2-1,0.4-1.5L67,100.8"/>
		<path id="Fill-5" class="st0" d="M73.3,104.9c-0.5-1.5-0.7-2.3-0.8-2.5c-0.1-0.2-0.1-0.3-0.1-0.5c-0.1,0.4-0.4,1.4-0.9,3
			L73.3,104.9z M74.1,107.8l-0.5-1.7h-2.5l-0.5,1.7H69l2.5-7h1.8l2.5,7H74.1z"/>
		<path id="Fill-6" class="st0" d="M80,102c-0.5,0-1,0.2-1.3,0.6c-0.3,0.5-0.5,1.1-0.5,1.7c0,1.6,0.6,2.3,1.7,2.3
			c0.6,0,1.2-0.1,1.8-0.4v1.2c-0.6,0.2-1.3,0.4-1.9,0.3c-0.9,0.1-1.7-0.3-2.3-0.9c-0.6-0.8-0.9-1.7-0.8-2.6c0-0.7,0.1-1.3,0.4-1.9
			c0.2-0.5,0.6-1,1.1-1.2c0.5-0.3,1.1-0.5,1.7-0.4c0.7,0,1.4,0.2,2,0.5l-0.5,1.2c-0.3-0.1-0.5-0.2-0.8-0.3C80.5,102,80.3,102,80,102
			"/>
		<polyline id="Fill-7" class="st0" points="85.9,103.7 87.4,100.8 88.9,100.8 86.6,105.1 86.6,107.8 85.2,107.8 85.2,105.1 
			82.9,100.8 84.5,100.8 85.9,103.7 		"/>
		<path id="Fill-8" class="st0" d="M91.6,106.8c-0.2,0.8-0.5,1.5-0.8,2.3h-1.1c0.2-0.8,0.4-1.6,0.5-2.4h1.3L91.6,106.8"/>
		<path id="Fill-9" class="st0" d="M100.7,105.9c0,0.6-0.2,1.1-0.7,1.5c-0.5,0.4-1.2,0.6-1.9,0.5c-0.7,0-1.4-0.1-2-0.4v-1.4
			c0.4,0.2,0.8,0.3,1.2,0.4c0.3,0.1,0.6,0.1,0.9,0.1c0.3,0,0.5,0,0.8-0.2c0.2-0.1,0.3-0.3,0.3-0.6c0-0.1,0-0.3-0.1-0.4
			c-0.1-0.1-0.2-0.2-0.3-0.3c-0.3-0.2-0.6-0.3-0.9-0.5c-0.4-0.1-0.7-0.3-1-0.6c-0.2-0.2-0.4-0.4-0.5-0.7c-0.1-0.3-0.2-0.6-0.2-0.8
			c0-0.6,0.2-1.1,0.6-1.4c0.5-0.4,1.1-0.6,1.7-0.5c0.3,0,0.7,0,1,0.1c0.3,0.1,0.7,0.2,1,0.4l-0.5,1.2c-0.3-0.1-0.6-0.2-0.9-0.3
			c-0.2-0.1-0.5-0.1-0.7-0.1c-0.2,0-0.5,0.1-0.6,0.2c-0.1,0.1-0.2,0.3-0.2,0.5c0,0.1,0,0.2,0.1,0.3c0.1,0.1,0.2,0.2,0.3,0.3
			c0.3,0.2,0.6,0.3,0.9,0.5c0.5,0.2,1,0.5,1.3,0.9c0.2,0.3,0.4,0.7,0.4,1.2"/>
		<polyline id="Fill-10" class="st0" points="106.5,107.8 102.5,107.8 102.5,100.8 106.5,100.8 106.5,102.1 103.9,102.1 
			103.9,103.6 106.3,103.6 106.3,104.8 103.9,104.8 103.9,106.6 106.5,106.6 106.5,107.8 		"/>
		<path id="Fill-11" class="st0" d="M111.4,102c-0.5,0-1,0.2-1.3,0.6c-0.3,0.5-0.5,1.1-0.5,1.7c0,1.6,0.6,2.3,1.7,2.3
			c0.6,0,1.2-0.1,1.8-0.4v1.2c-0.6,0.2-1.3,0.4-1.9,0.3c-0.9,0.1-1.7-0.3-2.3-0.9c-0.6-0.8-0.9-1.7-0.8-2.6c0-0.7,0.1-1.3,0.4-1.9
			c0.2-0.5,0.6-1,1.1-1.2c0.5-0.3,1.1-0.5,1.7-0.4c0.7,0,1.4,0.2,2,0.5l-0.5,1.2c-0.3-0.1-0.5-0.2-0.8-0.3
			C111.9,102,111.6,102,111.4,102"/>
		<path id="Fill-12" class="st0" d="M120.8,100.8v4.5c0,0.5-0.1,0.9-0.3,1.3c-0.2,0.4-0.6,0.7-1,0.9c-0.5,0.2-1,0.3-1.5,0.3
			c-0.8,0-1.5-0.2-2.1-0.7c-0.5-0.5-0.8-1.2-0.8-1.9v-4.5h1.5v4.2c0,0.4,0.1,0.8,0.3,1.2c0.3,0.3,0.7,0.4,1.1,0.4
			c0.4,0,0.7-0.1,1-0.4c0.2-0.3,0.4-0.8,0.3-1.2v-4.2L120.8,100.8"/>
		<path id="Fill-13" class="st0" d="M124.4,103.9h0.5c0.3,0,0.7-0.1,1-0.2c0.2-0.2,0.4-0.4,0.3-0.7c0-0.3-0.1-0.5-0.3-0.7
			c-0.3-0.2-0.7-0.2-1.1-0.2h-0.4L124.4,103.9z M124.4,105.1v2.7h-1.5v-7h2c0.7-0.1,1.5,0.1,2.1,0.5c0.5,0.4,0.7,1,0.7,1.6
			c0,0.4-0.1,0.8-0.3,1.1c-0.3,0.3-0.6,0.6-1,0.8l2,3h-1.5l-1.7-2.7L124.4,105.1z"/>
		<polygon id="Fill-14" class="st0" points="129.9,107.8 131.3,107.8 131.3,100.8 129.9,100.8 		"/>
		<polyline id="Fill-15" class="st0" points="136.2,107.8 134.8,107.8 134.8,102.1 132.9,102.1 132.9,100.8 138.1,100.8 
			138.1,102.1 136.2,102.1 136.2,107.8 		"/>
		<polyline id="Fill-16" class="st0" points="141.9,103.7 143.3,100.8 144.9,100.8 142.6,105.1 142.6,107.8 141.1,107.8 
			141.1,105.1 138.8,100.8 140.4,100.8 141.9,103.7 		"/>
		<path id="Fill-17" class="st0" d="M152,102.4c0-0.2-0.1-0.3-0.2-0.4c-0.1-0.1-0.3-0.2-0.4-0.2c-0.2,0-0.4,0-0.5,0.2
			c-0.1,0.1-0.2,0.3-0.2,0.4c0,0.4,0.2,0.7,0.4,0.9c0.2-0.1,0.4-0.3,0.6-0.4C151.9,102.8,152,102.6,152,102.4z M150.3,105.8
			c0,0.3,0.1,0.5,0.3,0.7c0.2,0.2,0.5,0.3,0.8,0.2c0.4,0,0.8-0.1,1.1-0.3l-1.6-1.6c-0.2,0.1-0.3,0.3-0.4,0.4
			C150.3,105.4,150.3,105.6,150.3,105.8L150.3,105.8z M155.7,107.8h-1.8l-0.5-0.5c-0.6,0.4-1.3,0.6-2.1,0.6c-0.7,0-1.3-0.2-1.8-0.5
			c-0.4-0.3-0.7-0.9-0.7-1.4c0-0.4,0.1-0.8,0.3-1.1c0.3-0.4,0.6-0.7,1-0.9c-0.2-0.2-0.4-0.5-0.5-0.8c-0.1-0.3-0.2-0.5-0.2-0.8
			c0-0.5,0.2-0.9,0.6-1.2c0.4-0.3,1-0.5,1.5-0.4c0.5,0,1,0.1,1.4,0.4c0.3,0.3,0.5,0.7,0.5,1.1c0,0.4-0.1,0.7-0.3,1
			c-0.3,0.4-0.6,0.7-1.1,0.9l1.3,1.3c0.3-0.4,0.5-0.9,0.6-1.4h1.5c-0.1,0.4-0.3,0.9-0.5,1.3c-0.2,0.4-0.4,0.7-0.7,1.1L155.7,107.8
			L155.7,107.8z"/>
		<path id="Fill-18" class="st0" d="M162.7,103.9h2.8v3.6c-0.4,0.1-0.8,0.2-1.3,0.3c-0.4,0.1-0.8,0.1-1.2,0.1
			c-0.9,0.1-1.8-0.3-2.4-0.9c-0.6-0.7-0.9-1.7-0.8-2.7c0-1,0.3-1.9,1-2.6c0.7-0.7,1.7-1,2.7-0.9c0.7,0,1.4,0.1,2.1,0.4l-0.5,1.2
			c-0.5-0.3-1-0.4-1.6-0.4c-0.6,0-1.1,0.2-1.5,0.6c-0.4,0.5-0.6,1.1-0.6,1.7c0,0.6,0.1,1.2,0.5,1.7c0.3,0.4,0.8,0.6,1.4,0.6
			c0.3,0,0.6,0,0.9-0.1v-1.4h-1.3V103.9"/>
		<path id="Fill-19" class="st0" d="M168.8,104.3c0,0.6,0.1,1.2,0.4,1.8c0.3,0.4,0.8,0.6,1.3,0.6c1.2,0,1.8-0.8,1.8-2.3
			s-0.6-2.3-1.8-2.3c-0.5,0-1,0.2-1.3,0.6C168.9,103.1,168.8,103.7,168.8,104.3z M173.9,104.3c0.1,1-0.3,1.9-0.9,2.7
			c-1.4,1.2-3.5,1.2-4.9,0c-0.6-0.7-0.9-1.7-0.9-2.7c-0.1-1,0.2-1.9,0.9-2.7c1.4-1.2,3.5-1.2,4.9,0
			C173.6,102.4,173.9,103.4,173.9,104.3L173.9,104.3z"/>
		<path id="Fill-20" class="st0" d="M179.8,100.8h1.5l-2.4,7h-1.6l-2.4-7h1.5l1.3,4.1c0.1,0.2,0.1,0.5,0.2,0.8
			c0.1,0.2,0.1,0.5,0.1,0.7c0.1-0.5,0.2-1,0.4-1.5L179.8,100.8"/>
		<polyline id="Fill-21" class="st0" points="186.6,107.8 182.6,107.8 182.6,100.8 186.6,100.8 186.6,102.1 184.1,102.1 
			184.1,103.6 186.5,103.6 186.5,104.8 184.1,104.8 184.1,106.6 186.6,106.6 186.6,107.8 		"/>
		<path id="Fill-22" class="st0" d="M190.1,103.9h0.5c0.3,0,0.7-0.1,1-0.2c0.2-0.2,0.4-0.4,0.3-0.7c0-0.3-0.1-0.5-0.3-0.7
			c-0.3-0.2-0.7-0.2-1-0.2h-0.4L190.1,103.9z M190.1,105.1v2.7h-1.5v-7h2c0.7-0.1,1.5,0.1,2.1,0.5c0.5,0.4,0.7,1,0.7,1.6
			c0,0.4-0.1,0.8-0.3,1.1c-0.2,0.3-0.6,0.6-0.9,0.8c1,1.6,1.7,2.6,2,3h-1.6l-1.7-2.7L190.1,105.1z"/>
		<path id="Fill-23" class="st0" d="M201.6,107.8h-1.9l-3-5.3l0,0c0.1,0.9,0.1,1.6,0.1,2v3.3h-1.3v-7h1.9l3,5.2l0,0
			c0-0.9-0.1-1.5-0.1-1.9v-3.3h1.3L201.6,107.8"/>
		<path id="Fill-24" class="st0" d="M207.3,104.9c-0.5-1.5-0.7-2.3-0.8-2.5c0-0.2-0.1-0.3-0.1-0.5c-0.1,0.4-0.4,1.4-0.9,3
			L207.3,104.9z M208.1,107.8l-0.5-1.7h-2.5l-0.5,1.7H203l2.4-7h1.8l2.5,7H208.1z"/>
		<path id="Fill-25" class="st0" d="M217.2,107.8h-1.9l-3-5.3l0,0c0.1,0.9,0.1,1.6,0.1,2v3.3h-1.3v-7h1.9l3,5.2l0,0
			c-0.1-0.9-0.1-1.5-0.1-1.9v-3.3h1.3L217.2,107.8"/>
		<path id="Fill-26" class="st0" d="M222.4,102c-0.5,0-1,0.2-1.3,0.6c-0.3,0.5-0.5,1.1-0.4,1.7c0,1.6,0.6,2.3,1.7,2.3
			c0.6,0,1.2-0.1,1.8-0.4v1.2c-0.6,0.2-1.3,0.4-1.9,0.3c-0.9,0.1-1.7-0.3-2.3-0.9c-0.6-0.8-0.9-1.7-0.8-2.6c0-0.7,0.1-1.3,0.4-1.9
			c0.2-0.5,0.6-1,1.1-1.2c0.5-0.3,1.1-0.5,1.7-0.4c0.7,0,1.4,0.2,2,0.5l-0.5,1.2c-0.3-0.1-0.5-0.2-0.8-0.3
			C223,102.1,222.7,102,222.4,102"/>
		<polyline id="Fill-27" class="st0" points="230.2,107.8 226.2,107.8 226.2,100.8 230.2,100.8 230.2,102.1 227.6,102.1 
			227.6,103.6 230,103.6 230,104.8 227.6,104.8 227.6,106.6 230.2,106.6 230.2,107.8 		"/>
		<path id="Fill-28" class="st1" d="M60.3,87.4c-3.2,0-5.8-1-7.4-3.1c-1.7-2.1-2.6-5.2-2.6-9.2s0.9-7.1,2.6-9.2
			c1.7-2.1,4.2-3.1,7.5-3.1c3.3,0,5.7,1,7.4,3.1c1.6,2.1,2.5,5.1,2.5,9.2s-0.8,7.2-2.5,9.2S63.6,87.4,60.3,87.4z M60.3,58.9
			c-4.6,0-8.2,1.4-10.7,4.2C47.1,66,45.8,70,45.8,75s1.3,9.1,3.8,11.9s6.1,4.3,10.7,4.3s8.1-1.5,10.6-4.3S74.7,80,74.7,75
			s-1.3-9-3.8-11.8S64.8,59,60.3,58.9L60.3,58.9z"/>
		<path id="Fill-29" class="st1" d="M91.6,66.7c-1.5,0-3.1,0.3-4.4,1c-1.1,0.5-2.1,1.3-2.8,2.2l-0.5-2.8h-3.5v23.7h4.2V78.4
			c0-2.9,0.5-5,1.6-6.2c1.1-1.2,2.7-1.8,5-1.8c1.4-0.1,2.7,0.3,3.8,1.3c0.9,1.1,1.3,2.6,1.2,4v15.2h4.2V75.4c0-3-0.7-5.2-2.2-6.7
			S94.4,66.7,91.6,66.7"/>
		<path id="Fill-30" class="st1" d="M115.8,70.3c1.5-0.1,2.9,0.5,3.9,1.6c1,1.3,1.4,2.9,1.4,4.5h-11.3c0.1-1.6,0.8-3.1,1.8-4.4
			C112.7,70.8,114.2,70.2,115.8,70.3z M115.8,66.7c-2.9-0.1-5.7,1.2-7.6,3.4c-1.9,2.2-2.8,5.3-2.8,9s1,6.7,3,8.9
			c2.2,2.2,5.2,3.4,8.3,3.2c1.3,0,2.7-0.1,4-0.4c1.2-0.3,2.4-0.7,3.6-1.2l0.2-0.1v-3.8l-0.5,0.2c-2.3,1-4.7,1.5-7.2,1.5
			c-1.9,0.1-3.8-0.6-5.2-2c-1.3-1.6-2-3.5-1.9-5.6h15.9v-2.5c0.1-2.8-0.8-5.6-2.6-7.7C121.2,67.6,118.6,66.5,115.8,66.7L115.8,66.7z
			"/>
		<polyline id="Fill-31" class="st1" points="127.5,63.3 137.2,63.3 137.2,90.8 141.4,90.8 141.4,63.3 151.1,63.3 151.1,59.4 
			127.5,59.4 127.5,63.3 		"/>
		<path id="Fill-32" class="st1" d="M165.4,66.7c-1.5,0-2.9,0.5-4.2,1.3c-1.1,0.8-2.1,1.8-2.8,2.9l-0.3-3.8h-3.5v23.7h4.2V78.1
			c-0.1-2,0.6-3.9,1.9-5.4c1.1-1.4,2.8-2.1,4.5-2.1c0.8,0,1.6,0.1,2.5,0.3l0.4,0.1l0.6-3.9l-0.3-0.1
			C167.3,66.8,166.3,66.7,165.4,66.7"/>
		<path id="Fill-33" class="st1" d="M187.6,79.5c0,2.9-0.5,5-1.6,6.2s-2.7,1.8-5,1.8c-1.4,0.1-2.7-0.3-3.8-1.3
			c-0.9-1.1-1.3-2.6-1.2-4V67.1h-4.2v15.4c0,3,0.7,5.2,2.2,6.6s3.6,2.1,6.5,2.1c1.5,0,3.1-0.3,4.5-0.9c1.1-0.5,2-1.3,2.8-2.2
			l0.4,2.8h3.5V67.1h-4.2L187.6,79.5"/>
		<path id="Fill-34" class="st1" d="M206.8,77c-1.4-0.5-2.7-1-4-1.7c-0.5-0.3-1-0.7-1.4-1.1c-0.3-0.4-0.4-0.9-0.4-1.4
			c0-0.8,0.4-1.5,1.1-1.8c1.1-0.6,2.3-0.8,3.6-0.7c2.1,0.1,4.2,0.5,6.1,1.4l0.3,0.1l1.5-3.4l-0.3-0.1c-2.3-1-4.8-1.5-7.4-1.5
			c-2.3-0.1-4.5,0.5-6.5,1.7c-1.6,1.1-2.4,2.9-2.4,4.8c0,1,0.2,2,0.7,2.9c0.5,0.9,1.3,1.6,2.1,2.1c1.5,0.9,3,1.6,4.6,2.1
			c1.6,0.5,3.1,1.3,4.4,2.2c1.2,0.9,1.4,2.6,0.5,3.7c-0.2,0.3-0.5,0.5-0.8,0.7c-1.2,0.6-2.6,0.9-4,0.8c-1.2,0-2.4-0.2-3.6-0.5
			c-1.2-0.3-2.4-0.7-3.5-1.3l-0.5-0.2v4l0.2,0.1c2.3,1.1,4.8,1.6,7.3,1.5c2.4,0.1,4.9-0.5,6.9-1.8c1.7-1.2,2.6-3.2,2.5-5.2
			c0-1.5-0.5-2.9-1.5-4C211.5,79.1,209.6,78.1,206.8,77"/>
		<path id="Fill-35" class="st1" d="M229.7,87.2c-0.4,0.1-0.9,0.2-1.3,0.3c-0.6,0.1-1.2,0.1-1.7,0.1c-0.9,0-1.8-0.3-2.4-1
			c-0.7-0.9-1-1.9-0.9-3V70.5h6.7v-3.4h-6.7v-5.3h-2.6l-1.5,5l-3.4,1.5v2.2h3.3v13.3c0,4.9,2.4,7.4,7,7.4c0.7,0,1.3-0.1,2-0.2
			c0.6-0.1,1.2-0.2,1.8-0.5l0.2-0.1v-3.3L229.7,87.2"/>
	</g>
</g>
</svg>
